<svg xmlns="http://www.w3.org/2000/svg" viewBox="0 0 187.09 175.16"><defs><style>.cls-1{fill:#fde9d9;}.cls-2{fill:#264653;}.cls-3{fill:#2a9d8f;}.cls-4{fill:#8c4034;}.cls-5{fill:#230e0b;}.cls-6{fill:#ddd8c1;}.cls-7,.cls-8{fill:#e86f51;}.cls-8{opacity:0.11;}.cls-9{fill:#ba684e;}.cls-10{fill:#f5a261;}</style></defs><g id="Capa_2" data-name="Capa 2"><g id="Capa_2-2" data-name="Capa 2"><circle class="cls-1" cx="68.1" cy="102.19" r="68.08" transform="translate(-52.63 124.67) rotate(-66.87)"/><circle class="cls-2" cx="68.1" cy="102.19" r="68.08" transform="translate(-52.63 124.67) rotate(-66.87)"/><circle class="cls-2" cx="68.1" cy="102.19" r="65.22" transform="translate(-37.82 164.32) rotate(-86.72)"/><circle class="cls-3" cx="68.1" cy="102.19" r="53.85" transform="translate(-46.27 57.46) rotate(-34.96)"/><path class="cls-4" d="M80.74,55.08a48.54,48.54,0,0,1,23.05,13.86c11.06,11.89,12.93,28,8.41,44.89s-14.33,30.26-29.86,35a48.78,48.78,0,1,1-1.6-93.76Z"/><path class="cls-5" d="M93.05,144.09c-.44.27-.89.53-1.34.77a48.94,48.94,0,0,1-9.37,4,44.9,44.9,0,0,1-5.55.91,46.75,46.75,0,1,1,27-80.81,48.94,48.94,0,0,1,11.75,22,48.75,48.75,0,0,1-22.49,53.19Z"/><path class="cls-5" d="M31.1,90.16a2.73,2.73,0,0,0,.4,1.37,1.46,1.46,0,0,0,1.18.7,2,2,0,0,0,1.52-1c.78-1.08,2.39-5.37.43-6.1C32.42,84.31,31,88.71,31.1,90.16Z"/><path class="cls-5" d="M33.77,80.29a2,2,0,0,0,0,1.9,1.55,1.55,0,0,0,1.7.73,2.24,2.24,0,0,0,1.07-.86c.58-.79,1.1-2.46,0-3.07C35.57,78.5,34.19,79.53,33.77,80.29Z"/><path class="cls-5" d="M28.27,93a2.28,2.28,0,0,0-.45,1.72A1.71,1.71,0,0,0,29.7,96a1.77,1.77,0,0,0,1.44-1.78C31.07,92.81,29.21,91.67,28.27,93Z"/><path class="cls-5" d="M32,95.84a2.22,2.22,0,0,0-.45,1.71,1.71,1.71,0,0,0,1.88,1.28A1.78,1.78,0,0,0,34.88,97C34.81,95.67,33,94.52,32,95.84Z"/><path class="cls-6" d="M74.19,153.52l4,10.79A9.33,9.33,0,0,0,89.61,170h0a9.33,9.33,0,0,0,6.33-11.5l-3.1-10.91Z"/><path class="cls-6" d="M68.07,91.92S57.12,67.6,64.85,66.31,68.07,91.92,68.07,91.92Z"/><path class="cls-6" d="M69.52,96.91s5-25.61,11-21.74S69.52,96.91,69.52,96.91Z"/><path class="cls-6" d="M68.13,97S45.81,83.49,51.49,79.23,68.13,97,68.13,97Z"/><path class="cls-6" d="M72.58,107.54S82.72,83.7,87.23,88.21,72.58,107.54,72.58,107.54Z"/><path class="cls-6" d="M74,113s19.4-17.18,21.54-11.17S74,113,74,113Z"/><path class="cls-6" d="M68.43,113.45s-25.72-3.08-22.65-8.67S68.43,113.45,68.43,113.45Z"/><path class="cls-6" d="M69.67,107.24s-24-9.87-19.49-14.43S69.67,107.24,69.67,107.24Z"/><path class="cls-6" d="M76.28,122s22.23-20.93,25.77-14.17S76.28,122,76.28,122Z"/><path class="cls-6" d="M71.71,122.41s-30.32,3.58-29.14-4S71.71,122.41,71.71,122.41Z"/><path class="cls-6" d="M76.77,132.18s23.51-19.33,26.09-14S76.77,132.18,76.77,132.18Z"/><path class="cls-6" d="M75.07,133.81s-30.43-.84-28.89-6.54S75.07,133.81,75.07,133.81Z"/><path class="cls-1" d="M93.84,73.43a8.33,8.33,0,0,0,.46,4.87,20.37,20.37,0,0,0,6.26,9,4.72,4.72,0,0,0,2.2,1.17c1.76.28,3.37-1.34,3.73-3.09a9.86,9.86,0,0,0-.79-5.22,24.8,24.8,0,0,0-2.81-5.9C100.79,71.21,95.37,67.85,93.84,73.43Z"/><path class="cls-1" d="M105.34,92.36A4.21,4.21,0,0,0,104.6,94a5.46,5.46,0,0,0,.36,3.69,3.93,3.93,0,0,0,2.93,2.14A3.09,3.09,0,0,0,111,98.18a4.06,4.06,0,0,0,.27-2.13C111,93.37,108,89,105.34,92.36Z"/><path class="cls-7" d="M167.22,57.05h0v0a10.85,10.85,0,0,1-10,13.71h0A10.86,10.86,0,0,1,141.08,76h0a10.85,10.85,0,0,1-16.13-5.25h0a10.84,10.84,0,0,1-10-13.71v0h0a10.85,10.85,0,0,1,0-16.95l0,0h0a10.86,10.86,0,0,1,10-13.72h0a10.85,10.85,0,0,1,16.13-5.24h0a10.85,10.85,0,0,1,16.14,5.24h0a10.86,10.86,0,0,1,10,13.72h0l0,0A10.84,10.84,0,0,1,167.22,57.05Z"/><path class="cls-7" d="M167.22,54.86l0,0h0a10.86,10.86,0,0,1-10,13.72h0a10.85,10.85,0,0,1-16.14,5.24h0a10.85,10.85,0,0,1-16.13-5.24h0a10.86,10.86,0,0,1-10-13.72h0l0,0a10.85,10.85,0,0,1,0-17l0,0h0a10.86,10.86,0,0,1,10-13.72h0a10.85,10.85,0,0,1,16.13-5.24h0a10.85,10.85,0,0,1,16.14,5.24h0a10.86,10.86,0,0,1,10,13.72v0h0A10.84,10.84,0,0,1,167.22,54.86Z"/><path class="cls-8" d="M167.22,54.86l0,0h0a10.86,10.86,0,0,1-10,13.72h0a10.85,10.85,0,0,1-16.14,5.24h0a10.85,10.85,0,0,1-16.13-5.24h0a10.86,10.86,0,0,1-10-13.72h0l0,0a10.85,10.85,0,0,1,0-17l0,0h0a10.86,10.86,0,0,1,10-13.72h0a10.85,10.85,0,0,1,16.13-5.24h0a10.85,10.85,0,0,1,16.14,5.24h0a10.86,10.86,0,0,1,10,13.72v0h0A10.84,10.84,0,0,1,167.22,54.86Z"/><path class="cls-5" d="M136.43,60.22c1.32,1.44,1.52,3.41.45,4.4s-3,.61-4.34-.83-1.52-3.41-.45-4.39S135.11,58.78,136.43,60.22Z"/><path class="cls-5" d="M144.82,47.82c-1,1.69-2.8,2.47-4.06,1.74s-1.49-2.69-.51-4.38,2.79-2.48,4.05-1.75S145.79,46.12,144.82,47.82Z"/><path class="cls-5" d="M156.17,38.61c1.94-.29,3.68.65,3.89,2.09s-1.18,2.84-3.12,3.13-3.67-.65-3.88-2.09S154.24,38.89,156.17,38.61Z"/><path class="cls-5" d="M124.25,50.58c1.94-.29,3.68.65,3.89,2.09S127,55.51,125,55.8s-3.68-.65-3.89-2.09S122.32,50.86,124.25,50.58Z"/><path class="cls-5" d="M128.05,35.81c2,0,3.54,1.18,3.54,2.64s-1.58,2.64-3.54,2.64-3.54-1.18-3.54-2.64S126.1,35.81,128.05,35.81Z"/><path class="cls-5" d="M147.23,31.68c-1.28,1.48-3.21,1.91-4.31,1s-1-2.93.32-4.41,3.2-1.9,4.31-.95S148.51,30.2,147.23,31.68Z"/><path class="cls-5" d="M155.21,60.06c-1.28,1.48-3.21,1.91-4.31,1s-1-2.93.32-4.41,3.2-1.9,4.31-1S156.49,58.58,155.21,60.06Z"/><path class="cls-7" d="M179.19,104.76h0v0a10.85,10.85,0,0,1-10,13.71h0a10.86,10.86,0,0,1-16.14,5.25h0a10.85,10.85,0,0,1-16.13-5.25h0a10.84,10.84,0,0,1-10-13.71v0h0a10.85,10.85,0,0,1,0-17l0,0h0a10.85,10.85,0,0,1,10-13.72h0A10.85,10.85,0,0,1,153,68.82h0a10.86,10.86,0,0,1,16.14,5.24h0a10.86,10.86,0,0,1,10,13.72h0l0,0A10.85,10.85,0,0,1,179.19,104.76Z"/><path class="cls-7" d="M179.19,102.57l0,0h0a10.86,10.86,0,0,1-10,13.72h0a10.86,10.86,0,0,1-16.14,5.24h0a10.84,10.84,0,0,1-16.13-5.24h0a10.85,10.85,0,0,1-10-13.72v0h0a10.85,10.85,0,0,1,0-16.95l0,0h0a10.85,10.85,0,0,1,10-13.72h0A10.85,10.85,0,0,1,153,66.63h0a10.86,10.86,0,0,1,16.14,5.24h0a10.86,10.86,0,0,1,10,13.72h0l0,0A10.85,10.85,0,0,1,179.19,102.57Z"/><path class="cls-5" d="M148.4,107.93c1.32,1.44,1.52,3.41.45,4.4s-3,.61-4.34-.83-1.52-3.41-.45-4.39S147.08,106.49,148.4,107.93Z"/><path class="cls-5" d="M156.78,95.53c-1,1.69-2.79,2.47-4.05,1.74s-1.49-2.69-.52-4.38,2.8-2.48,4.06-1.75S157.76,93.83,156.78,95.53Z"/><path class="cls-5" d="M168.14,86.32c1.94-.29,3.68.65,3.89,2.09s-1.18,2.84-3.12,3.13-3.67-.65-3.88-2.09S166.21,86.6,168.14,86.32Z"/><path class="cls-5" d="M136.22,98.29c1.94-.29,3.68.65,3.89,2.09s-1.18,2.84-3.12,3.13-3.67-.65-3.88-2.09S134.29,98.57,136.22,98.29Z"/><ellipse class="cls-5" cx="140.02" cy="86.16" rx="3.54" ry="2.64"/><path class="cls-5" d="M159.2,79.39c-1.28,1.48-3.21,1.91-4.31,1s-1-2.93.31-4.41,3.21-1.9,4.32-1S160.48,77.91,159.2,79.39Z"/><path class="cls-5" d="M167.18,107.77c-1.28,1.48-3.21,1.91-4.31,1s-1-2.93.31-4.41,3.21-1.9,4.32-.95S168.46,106.29,167.18,107.77Z"/><polygon class="cls-1" points="103.39 25.74 99.14 25.54 78.88 24.61 80.62 3.88 99.78 4.23 102.92 4.28 103.39 25.74"/><polygon class="cls-5" points="103.39 25.74 99.14 25.54 99.78 4.23 102.92 4.28 103.39 25.74"/><polygon class="cls-1" points="50.82 28.24 49.85 24.1 45.21 4.36 65.63 0.37 70.53 18.89 71.33 21.93 50.82 28.24"/><polygon class="cls-5" points="50.82 28.24 49.85 24.1 70.53 18.89 71.33 21.93 50.82 28.24"/><path class="cls-5" d="M129.94,161.69c6.05-1.67,11.85-2,13.34,1.68a3.27,3.27,0,0,1,.2.55c1.13,4.09-3.1,8.82-9.44,10.58s-12.4-.13-13.53-4.22a2.9,2.9,0,0,1-.12-.57C119.76,165.76,123.89,163.37,129.94,161.69Z"/><path class="cls-9" d="M129.94,159.69c4.69-1.3,9.22-.61,11.72,1.5a5,5,0,0,1,.58.54,5.18,5.18,0,0,1,1,1.64c.63,4-3.49,8.35-9.55,10-5.84,1.62-11.46.13-13.17-3.33-.06-.12-.12-.24-.17-.36a.77.77,0,0,1,0-.15C119.87,165.65,124,161.34,129.94,159.69Z"/><path class="cls-5" d="M141.66,161.19a5,5,0,0,1,.58.54,13.67,13.67,0,0,0-7,1.12,27.42,27.42,0,0,0-4.93,3.1c-.91.66-1.85,1.34-2.82,2a12.42,12.42,0,0,1-6.94,2.16c-.06-.12-.12-.24-.17-.36a.77.77,0,0,1,0-.15,12.1,12.1,0,0,0,6.87-2.08c1-.6,1.88-1.28,2.78-1.94a28.33,28.33,0,0,1,5-3.15A14.19,14.19,0,0,1,141.66,161.19Z"/><path class="cls-5" d="M144,136.5c6,1.91,9.93,4.46,9.15,8.38a2.79,2.79,0,0,1-.14.57c-1.29,4.05-7.42,5.69-13.69,3.69s-10.3-6.9-9-10.95a5,5,0,0,1,.21-.54C132.19,134,138.05,134.59,144,136.5Z"/><path class="cls-9" d="M144,134.5c4.63,1.48,8.05,4.54,9,7.68a5.56,5.56,0,0,1,.18.76,5.27,5.27,0,0,1,0,1.94c-1.64,3.66-7.5,5.08-13.48,3.17-5.78-1.85-9.67-6.17-9.2-10,0-.14,0-.27.05-.4s0-.09.07-.13C132.34,134,138.13,132.61,144,134.5Z"/><path class="cls-5" d="M153,142.18a5.56,5.56,0,0,1,.18.76,13.72,13.72,0,0,0-6.46-2.9,27.52,27.52,0,0,0-5.81-.09c-1.13.05-2.29.11-3.44.09a12.4,12.4,0,0,1-7-2c0-.14,0-.27.05-.4s0-.09.07-.13a12.09,12.09,0,0,0,6.89,2c1.12,0,2.27,0,3.39-.1a28,28,0,0,1,5.93.11A14.22,14.22,0,0,1,153,142.18Z"/><path class="cls-5" d="M154.48,153.74c5.46-3.11,11.49-4.94,13.85-1.71a5.14,5.14,0,0,1,.32.49c2.1,3.69-.84,9.31-6.56,12.57S150,168,147.93,164.32a4.22,4.22,0,0,1-.25-.53C146.11,160.11,149,156.84,154.48,153.74Z"/><path class="cls-9" d="M154.48,151.74c4.23-2.41,8.8-2.85,11.74-1.42a6.47,6.47,0,0,1,.69.38,5.63,5.63,0,0,1,1.42,1.33c1.57,3.69-1.35,9-6.81,12.07-5.27,3-11.08,2.94-13.58,0a3.56,3.56,0,0,1-.26-.31l-.06-.14C146.18,160,149.1,154.8,154.48,151.74Z"/><path class="cls-5" d="M166.22,150.32a6.47,6.47,0,0,1,.69.38,13.81,13.81,0,0,0-6.51,2.8,28,28,0,0,0-4,4.21c-.72.86-1.47,1.76-2.25,2.59a12.44,12.44,0,0,1-6.2,3.8,3.56,3.56,0,0,1-.26-.31l-.06-.14c2.67-.45,4.92-2.42,6.16-3.7.77-.81,1.51-1.7,2.22-2.56a27.71,27.71,0,0,1,4.1-4.29A14.11,14.11,0,0,1,166.22,150.32Z"/><path class="cls-10" d="M31.62,36.67l-4,1.27a3.66,3.66,0,0,0-2.37,2.37l-1.27,4a.83.83,0,0,1-1.58,0l-1.27-4a3.64,3.64,0,0,0-2.37-2.37l-4-1.27a.83.83,0,0,1,0-1.58l4-1.27a3.64,3.64,0,0,0,2.37-2.37l1.27-4a.83.83,0,0,1,1.58,0l1.27,4a3.66,3.66,0,0,0,2.37,2.37l4,1.27A.83.83,0,0,1,31.62,36.67Z"/><path class="cls-10" d="M130.35,9.77l-4,1.28A3.64,3.64,0,0,0,124,13.42l-1.28,4a.83.83,0,0,1-1.57,0l-1.28-4a3.64,3.64,0,0,0-2.37-2.37l-4-1.28a.83.83,0,0,1,0-1.57l4-1.27a3.69,3.69,0,0,0,2.37-2.37l1.28-4a.82.82,0,0,1,1.57,0l1.28,4a3.69,3.69,0,0,0,2.37,2.37l4,1.27A.83.83,0,0,1,130.35,9.77Z"/><path class="cls-10" d="M186.51,140l-4,1.27a3.64,3.64,0,0,0-2.37,2.37l-1.27,4a.83.83,0,0,1-1.58,0l-1.27-4a3.64,3.64,0,0,0-2.37-2.37l-4-1.27a.83.83,0,0,1,0-1.58l4-1.27a3.64,3.64,0,0,0,2.37-2.37l1.27-4a.83.83,0,0,1,1.58,0l1.27,4a3.64,3.64,0,0,0,2.37,2.37l4,1.27A.83.83,0,0,1,186.51,140Z"/><path class="cls-10" d="M18.34,165.84l-4,1.27A3.66,3.66,0,0,0,12,169.48l-1.27,4a.83.83,0,0,1-1.58,0l-1.27-4a3.66,3.66,0,0,0-2.37-2.37l-4-1.27a.83.83,0,0,1,0-1.58l4-1.27a3.64,3.64,0,0,0,2.37-2.37l1.27-4a.83.83,0,0,1,1.58,0l1.27,4A3.64,3.64,0,0,0,14.36,163l4,1.27A.83.83,0,0,1,18.34,165.84Z"/></g></g></svg>