<svg xmlns="http://www.w3.org/2000/svg" xmlns:xlink="http://www.w3.org/1999/xlink" viewBox="0 0 348.88 348.88"><defs><style>.cls-1{fill:none;}.cls-2{isolation:isolate;}.cls-3{fill:url(#linear-gradient);}.cls-4{fill:#ce1127;}.cls-5{fill:url(#Degradado_sin_nombre_51);}.cls-6{fill:#003993;}.cls-7{opacity:0.57;}.cls-10,.cls-7{mix-blend-mode:multiply;}.cls-12,.cls-8{opacity:0.49;}.cls-9{clip-path:url(#clip-path);}.cls-10{fill:url(#radial-gradient);}.cls-11,.cls-13,.cls-14{opacity:0.26;mix-blend-mode:screen;}.cls-11{fill:url(#Degradado_sin_nombre_11);}.cls-12{mix-blend-mode:color-dodge;fill:url(#Degradado_sin_nombre_46);}.cls-13{fill:url(#Degradado_sin_nombre_11-2);}.cls-14{fill:url(#Degradado_sin_nombre_11-3);}</style><linearGradient id="linear-gradient" x1="247.26" y1="307.59" x2="82.44" y2="22.12" gradientUnits="userSpaceOnUse"><stop offset="0.06" stop-color="#575756"/><stop offset="0.17" stop-color="#e1e1e1"/><stop offset="0.41" stop-color="#696969"/><stop offset="0.65" stop-color="#575756"/><stop offset="0.84" stop-color="#fff"/><stop offset="0.94" stop-color="#575756"/></linearGradient><linearGradient id="Degradado_sin_nombre_51" x1="165" y1="21" x2="165" y2="167.29" gradientUnits="userSpaceOnUse"><stop offset="0.41" stop-color="#fed733"/><stop offset="0.68" stop-color="#fed531"/><stop offset="0.85" stop-color="#fece28"/><stop offset="0.98" stop-color="#fec21a"/><stop offset="1" stop-color="#febf17"/></linearGradient><clipPath id="clip-path" transform="translate(8.67 17.93)"><path class="cls-1" d="M307.69,184.48c.12-.87.22-1.75.33-2.63,0-.32.07-.64.11-1,.08-.72.15-1.45.22-2.18,0-.48.09-1,.13-1.45l.15-1.85c0-.61.08-1.22.11-1.83s.07-1.05.09-1.58c0-.74.06-1.49.09-2.24,0-.41,0-.82,0-1.24,0-1.17,0-2.34,0-3.52s0-2.35,0-3.52c0-.42,0-.83,0-1.24,0-.75-.05-1.5-.09-2.24,0-.53-.06-1.05-.09-1.58s-.07-1.22-.11-1.83l-.15-1.85c0-.49-.08-1-.13-1.45-.07-.73-.14-1.45-.22-2.18,0-.32-.08-.64-.11-1-.11-.88-.21-1.76-.33-2.63l0-.2a144,144,0,0,0-285.31,0l0,.2c-.12.87-.23,1.75-.33,2.63,0,.32-.07.64-.11,1-.08.73-.15,1.45-.22,2.18-.05.48-.09,1-.13,1.45l-.15,1.85c0,.61-.08,1.22-.11,1.83s-.07,1.05-.09,1.58c0,.74-.07,1.49-.09,2.24,0,.41,0,.82,0,1.24,0,1.17-.05,2.34-.05,3.52s0,2.35.05,3.52c0,.42,0,.83,0,1.24,0,.75.05,1.5.09,2.24,0,.53.05,1.05.09,1.58s.07,1.22.11,1.83l.15,1.85c0,.49.08,1,.13,1.45.07.73.14,1.46.22,2.18,0,.32.07.64.11,1,.1.88.21,1.76.33,2.63l0,.2a144,144,0,0,0,285.31,0Z"/></clipPath><radialGradient id="radial-gradient" cx="174.44" cy="174.44" r="174.44" gradientUnits="userSpaceOnUse"><stop offset="0.54" stop-color="#fff"/><stop offset="1" stop-opacity="0.6"/></radialGradient><linearGradient id="Degradado_sin_nombre_11" x1="208.54" y1="140.41" x2="250.2" y2="75.65" gradientTransform="translate(-13.86 116.1) rotate(-35.18)" gradientUnits="userSpaceOnUse"><stop offset="0.24" stop-color="#fff" stop-opacity="0"/><stop offset="0.28" stop-color="#fff" stop-opacity="0.08"/><stop offset="0.39" stop-color="#fff" stop-opacity="0.32"/><stop offset="0.51" stop-color="#fff" stop-opacity="0.53"/><stop offset="0.62" stop-color="#fff" stop-opacity="0.7"/><stop offset="0.73" stop-color="#fff" stop-opacity="0.83"/><stop offset="0.83" stop-color="#fff" stop-opacity="0.92"/><stop offset="0.92" stop-color="#fff" stop-opacity="0.98"/><stop offset="1" stop-color="#fff"/></linearGradient><radialGradient id="Degradado_sin_nombre_46" cx="163.67" cy="119.93" r="76" gradientUnits="userSpaceOnUse"><stop offset="0" stop-color="#fee782"/><stop offset="0.09" stop-color="#fee782" stop-opacity="0.97"/><stop offset="0.22" stop-color="#fee782" stop-opacity="0.88"/><stop offset="0.39" stop-color="#fee782" stop-opacity="0.74"/><stop offset="0.58" stop-color="#fee782" stop-opacity="0.54"/><stop offset="0.79" stop-color="#fee782" stop-opacity="0.28"/><stop offset="1" stop-color="#fee782" stop-opacity="0"/></radialGradient><linearGradient id="Degradado_sin_nombre_11-2" x1="140.84" y1="111.61" x2="140.84" y2="31.73" gradientTransform="translate(0.16 0.52) rotate(0.33)" xlink:href="#Degradado_sin_nombre_11"/><linearGradient id="Degradado_sin_nombre_11-3" x1="130.37" y1="72.46" x2="130.37" y2="37.4" gradientTransform="translate(0.89 -3.05) rotate(1.5)" xlink:href="#Degradado_sin_nombre_11"/></defs><g class="cls-2"><g id="Capa_2" data-name="Capa 2"><g id="OBJECTS"><path class="cls-3" d="M164.85,329.71C74,329.71,0,255.76,0,164.85S74,0,164.85,0,329.7,74,329.7,164.85,255.75,329.71,164.85,329.71Zm0-301.44c-75.32,0-136.59,61.27-136.59,136.58S89.53,301.44,164.85,301.44s136.59-61.27,136.59-136.59S240.16,28.27,164.85,28.27Z" transform="translate(8.67 17.93)"/><path class="cls-4" d="M165,309a143.92,143.92,0,0,0,123.1-69.24H41.91A143.9,143.9,0,0,0,165,309Z" transform="translate(8.67 17.93)"/><path class="cls-5" d="M309,165a144,144,0,0,0-288,0c0,.77,0,1.53,0,2.29H309C309,166.53,309,165.77,309,165Z" transform="translate(8.67 17.93)"/><path class="cls-6" d="M21,167.29a143.33,143.33,0,0,0,20.88,72.47H288.1A143.23,143.23,0,0,0,309,167.29Z" transform="translate(8.67 17.93)"/><g class="cls-7"><g class="cls-8"><g class="cls-9"><rect class="cls-10" width="348.88" height="348.88"/></g></g></g><path class="cls-11" d="M194.12,35.53s41.49,32.64-.05,67c0,0,83,18.78,85.85-3.14S211.14,32.81,194.12,35.53Z" transform="translate(8.67 17.93)"/><circle class="cls-12" cx="163.67" cy="119.93" r="76"/><ellipse class="cls-13" cx="140.59" cy="73" rx="59.95" ry="39.94" transform="translate(5.32 24.78) rotate(-2.76)"/><ellipse class="cls-14" cx="129.79" cy="55.27" rx="26.42" ry="17.53" transform="translate(-0.45 48.58) rotate(-13.01)"/></g></g></g></svg>