<?xml version="1.0" encoding="utf-8"?>
<!-- Generator: Adobe Illustrator 25.2.3, SVG Export Plug-In . SVG Version: 6.00 Build 0)  -->
<svg version="1.1" id="Capa_1" xmlns="http://www.w3.org/2000/svg" xmlns:xlink="http://www.w3.org/1999/xlink" x="0px" y="0px"
	 viewBox="0 0 67.6 67.6" style="enable-background:new 0 0 67.6 67.6;" xml:space="preserve">
<style type="text/css">
	.st0{fill:#264653;}
	.st1{fill:#E86F51;}
	.st2{fill:#D59472;}
	.st3{fill:#F5A261;}
	.st4{fill:#DA9C81;}
	.st5{fill:#2A9D8F;}
	.st6{fill:#DDD8C1;}
	.st7{fill:none;}
</style>
<g id="Capa_2_1_">
	<g id="Capa_2-2">
		<circle class="st0" cx="32.5" cy="32" r="29.3"/>
		<path class="st1" d="M60.3,29.7l-1.6-4.5c-1-2.7-3.9-4-6.6-3.1l-11,4l-3.7-3.6c-0.7-0.6-1.7-0.6-2.4,0l-1.6,1.7
			c-0.6,0.7-0.6,1.7,0,2.4l1.7,1.7l-6.4,2.4c-2.7,1-4,3.9-3.1,6.6l1.6,4.5c1,2.7,13.4,3.6,22.4-2.7l7.6-2.8
			C59.9,35.3,61.3,32.4,60.3,29.7z"/>
		<path class="st2" d="M25.2,26.9h15.1c0.8,0,1.5,0.7,1.5,1.5v2.2c0,0.8-0.7,1.5-1.5,1.5H25.2c-0.8,0-1.5-0.7-1.5-1.5v-2.2
			C23.7,27.6,24.4,26.9,25.2,26.9z"/>
		<path class="st2" d="M26.2,31.7h13.3c0.8,0,1.5,0.7,1.5,1.5v1.6c0,0.8-0.7,1.5-1.5,1.5H26.2c-0.8,0-1.5-0.7-1.5-1.5v-1.6
			C24.7,32.3,25.3,31.7,26.2,31.7z"/>
		<path class="st2" d="M26.3,35.9H39c0.8,0,1.5,0.7,1.5,1.5v2.2c0,0.8-0.7,1.5-1.5,1.5H26.3c-0.8,0-1.5-0.7-1.5-1.5v-2.2
			C24.8,36.6,25.5,35.9,26.3,35.9z"/>
		<path class="st3" d="M39.8,26.8H31c0.4-0.7,0.3-1.6-0.2-2.2L30,23.8c-0.7-0.8-1.9-0.9-2.7-0.2L23,27.2c-0.1,0.1-0.2,0.2-0.3,0.4
			l-9.3,0.2c-2.7,0.1-4.9,2.3-4.8,5L8.6,38c0.1,2.7,2.3,4.9,5,4.8l16.5-0.4c1.2,0,2.4-0.5,3.3-1.4h5c0.8,0,1.5-0.7,1.5-1.5v-2.2
			c0-0.5-0.2-0.9-0.6-1.2c0.6-0.2,1.1-0.8,1.1-1.4v-1.6c0-0.4-0.2-0.8-0.5-1.1c0.8-0.1,1.3-0.7,1.3-1.5v-2.2
			C41.3,27.5,40.6,26.8,39.8,26.8C39.8,26.8,39.8,26.8,39.8,26.8z"/>
		<path class="st4" d="M28.5,39.1l-0.2,5.5c0,0.8-0.7,1.5-1.6,1.5L25.2,46c-0.8,0-1.5-0.7-1.5-1.6l0.2-5.5c0-0.8,0.7-1.5,1.6-1.5
			l1.6,0.1C27.9,37.5,28.5,38.2,28.5,39.1z"/>
		<path class="st4" d="M32.9,39.1l-0.2,6.1c0,0.8-0.7,1.5-1.6,1.5l-1.6-0.1c-0.8,0-1.5-0.7-1.5-1.6l0.2-6.1c0-0.8,0.7-1.5,1.6-1.5
			l1.6,0.1C32.3,37.6,33,38.3,32.9,39.1z"/>
		<path class="st4" d="M37.5,38.2l-0.2,6.1c0,0.8-0.7,1.5-1.6,1.5L34,45.7c-0.8,0-1.5-0.7-1.5-1.6l0.2-6.1c0-0.8,0.7-1.5,1.6-1.5
			l1.8,0.1C36.9,36.6,37.6,37.3,37.5,38.2z"/>
		<path class="st1" d="M36.3,37.3l-2-0.1c-0.8,0-1.5,0.6-1.6,1.5V39c-0.3-0.4-0.7-0.7-1.3-0.8l-1.6-0.1c-0.7,0-1.3,0.4-1.5,1.1
			c-0.2-0.6-0.7-1-1.4-1.1l-1.6-0.1c-0.8,0-1.5,0.6-1.5,1.5l-0.2,5.5c0,0.8,0.6,1.5,1.5,1.6l1.6,0.1c0.6,0,1.1-0.3,1.4-0.9
			c0.1,0.8,0.7,1.3,1.4,1.4l1.6,0.1c0.8,0,1.5-0.6,1.6-1.5v-0.3c0.3,0.4,0.7,0.7,1.3,0.8l2,0.1c0.8,0,1.5-0.6,1.6-1.5l0.2-6.1
			C37.8,38.1,37.1,37.4,36.3,37.3C36.3,37.3,36.3,37.3,36.3,37.3z"/>
		
			<rect x="3.9" y="27.4" transform="matrix(0.1153 -0.9933 0.9933 0.1153 -23.0266 42.7045)" class="st1" width="17.2" height="13.7"/>
		
			<rect x="-0.2" y="25.5" transform="matrix(0.1153 -0.9933 0.9933 0.1153 -25.3309 39.0472)" class="st5" width="18.9" height="16.4"/>
		
			<rect x="44.7" y="21.6" transform="matrix(0.9366 -0.3504 0.3504 0.9366 -7.4723 20.1529)" class="st5" width="14.5" height="18.2"/>
		
			<rect x="46.4" y="19.2" transform="matrix(0.9366 -0.3504 0.3504 0.9366 -6.7132 21.3082)" class="st1" width="18.3" height="20"/>
		<path class="st6" d="M46.5,18.1c-0.4,0-0.8-0.2-1.1-0.6c-0.3-0.4-0.6-0.8-0.7-1.3c-0.1-0.3-0.2-0.6-0.3-0.9c0-0.1-0.1-0.1-0.2-0.1
			c0,0-0.1,0-0.1,0.1c-0.1,0.4-0.3,0.8-0.5,1.2c-0.1,0.3-0.3,0.6-0.6,0.9c0,0,0,0,0,0c-0.3,0.2-0.6,0.3-1,0.3c-0.1,0-0.2,0.2,0,0.3
			c1,0.2,1.8,1,2,2c0.1,0.3,0.1,0.6,0.1,0.9c0,0.1,0.1,0.1,0.1,0.1c0.1,0,0.1,0,0.1-0.1c0.3-0.9,0.7-1.9,1.5-2.3
			c0.2-0.1,0.4-0.2,0.7-0.2C46.6,18.4,46.6,18.1,46.5,18.1z"/>
		<path class="st6" d="M23.7,49.5c-0.4,0-0.8-0.2-1.1-0.6c-0.3-0.4-0.6-0.8-0.7-1.3c-0.1-0.3-0.2-0.6-0.3-0.9c0-0.1-0.1-0.1-0.1-0.1
			c0,0-0.1,0-0.1,0.1c-0.1,0.4-0.3,0.8-0.5,1.2c-0.1,0.3-0.4,0.6-0.6,0.9l0,0c-0.3,0.2-0.6,0.3-1,0.3c-0.1,0-0.2,0.2,0,0.3
			c1,0.2,1.8,1,2,2c0.1,0.3,0.1,0.6,0.1,0.9c0,0.1,0.1,0.1,0.1,0.1c0.1,0,0.1,0,0.1-0.1c0.3-0.9,0.7-1.9,1.5-2.3
			c0.2-0.1,0.4-0.2,0.7-0.2C23.9,49.8,23.9,49.5,23.7,49.5z"/>
	</g>
</g>
<rect y="0" class="st7" width="67.6" height="67.6"/>
</svg>
