<?xml version="1.0" encoding="utf-8"?>
<!-- Generator: Adobe Illustrator 25.2.3, SVG Export Plug-In . SVG Version: 6.00 Build 0)  -->
<svg version="1.1" id="Capa_1" xmlns="http://www.w3.org/2000/svg" xmlns:xlink="http://www.w3.org/1999/xlink" x="0px" y="0px"
	 viewBox="0 0 67.6 67.6" style="enable-background:new 0 0 67.6 67.6;" xml:space="preserve">
<style type="text/css">
	.st0{fill-rule:evenodd;clip-rule:evenodd;fill:#582E13;}
	.st1{fill-rule:evenodd;clip-rule:evenodd;fill:#492712;}
	.st2{fill-rule:evenodd;clip-rule:evenodd;fill:#B2D8DE;}
	.st3{fill-rule:evenodd;clip-rule:evenodd;fill:#E0AD7E;}
	.st4{fill-rule:evenodd;clip-rule:evenodd;fill:#F2C196;}
	.st5{fill-rule:evenodd;clip-rule:evenodd;fill:#F5A261;}
	.st6{fill-rule:evenodd;clip-rule:evenodd;fill:#E74020;}
	.st7{fill-rule:evenodd;clip-rule:evenodd;fill:#EA5833;}
	.st8{fill-rule:evenodd;clip-rule:evenodd;fill:#F1F9FB;}
	.st9{fill-rule:evenodd;clip-rule:evenodd;fill:#355761;}
	.st10{fill-rule:evenodd;clip-rule:evenodd;fill:#09426A;}
	.st11{fill-rule:evenodd;clip-rule:evenodd;fill:#4FAA9D;}
	.st12{fill-rule:evenodd;clip-rule:evenodd;fill:#264653;}
	.st13{fill-rule:evenodd;clip-rule:evenodd;fill:#2A9D8F;}
	.st14{fill:#264653;}
	.st15{fill:#F2F9FC;}
	.st16{fill-rule:evenodd;clip-rule:evenodd;fill:#E86F51;}
</style>
<g id="Capa_2_1_">
	<g id="Capa_2-2">
		<path class="st0" d="M37.6,21.2c0.4-4.4,2-9.1,0.8-13.2c-2.7-5.9-15.3-8.7-21.3-7.6c-3.8,6-2.2,13.4-1.5,20.3L37.6,21.2z"/>
		<path class="st1" d="M26.5,21V1C31.7,2.1,36.8,4.5,38.4,8c1.1,4.1-0.4,8.8-0.8,13.2L26.5,21z"/>
		<path class="st2" d="M26.3,62.8c3.3,0,6.6-0.1,9.9-0.4V34.2l-1.1-0.5c-2.4-1-5.5-2.2-8.8-2.6V62.8z"/>
		<path class="st2" d="M26.3,62.8c-3.3,0-6.6-0.1-9.9-0.4V34.2l1.1-0.5c2.4-1,5.5-2.2,8.8-2.6V62.8z"/>
		<path class="st3" d="M19.2,25.6h14.1v8c-4.7,3.5-9.4,3.7-14.1,0L19.2,25.6z"/>
		<path class="st4" d="M20.5,9.1c-2-0.4-3.9,1.6-4.3,3.5c-0.3,1.8-0.6,3.5-0.6,5.3c-0.1,0,0.2,0-0.2,0c-0.4,0-1.7,0.3-1.7,1.9
			c0,1.2,1.2,4.8,2.7,4.2c2.2,5.5,5.1,8.6,9.9,9.7c0.1-0.1,0.1,0,0.2-0.1v-24C24.5,9.7,22.5,9.5,20.5,9.1z"/>
		<path class="st5" d="M32.3,9.1c2-0.4,3.9,1.6,4.3,3.5c0.3,1.8,0.6,3.5,0.6,5.3c0.1,0-0.2,0,0.2,0c0.4,0,1.7,0.3,1.7,1.9
			c0,1.2-1.2,4.8-2.7,4.2c-2.2,5.6-5.2,8.6-10.1,9.7v-24C28.3,9.7,30.3,9.5,32.3,9.1z"/>
		<polygon class="st6" points="26.3,36.4 28.7,36.4 27.7,40 26.3,40 26.3,40 24.9,40 23.9,36.4 		"/>
		<polygon class="st7" points="27.7,39.9 28.7,53.6 26.3,57.7 23.9,53.6 24.9,39.9 		"/>
		<path class="st8" d="M26.3,36.4l-4.1,3.8l-4.6-6.4l1.7-0.9C21,34.6,23.3,35.7,26.3,36.4z"/>
		<path class="st9" d="M26.3,57.3l-10.2-23C6.9,38.1,1,41,0,52c4.2,7,14.2,12.8,26.3,12.8V57.3z"/>
		<path class="st10" d="M8.3,60c0.4,0.2,0.8,0.4,1.2,0.7l0-4.5L8.3,60z"/>
		<polygon class="st11" points="26.3,57.3 26.3,63.1 16.7,46.9 19.6,43.7 15.2,42.3 13.3,35.5 18,33.6 		"/>
		<path class="st8" d="M26.3,36.4l4.1,3.8l4.6-6.4l-1.7-0.9C31.6,34.6,29.3,35.7,26.3,36.4z"/>
		<path class="st12" d="M26.3,57.3l10.2-23C45.7,38.1,51.6,41,52.6,52c-4.2,7-14.2,12.8-26.3,12.8V57.3z"/>
		<path class="st10" d="M44.3,60c-0.4,0.2-0.8,0.4-1.2,0.7l0-4.5L44.3,60z"/>
		<polygon class="st13" points="26.3,57.3 26.3,63.1 35.9,46.9 33,43.7 37.4,42.3 39.3,35.5 34.8,33.6 		"/>
		<path class="st14" d="M34.8,25.3h30.3c1.4,0,2.5,1.1,2.5,2.4v37.6c0,1.3-1.1,2.4-2.5,2.4H34.8c-1.4,0-2.5-1.1-2.5-2.4V27.6
			C32.3,26.3,33.4,25.3,34.8,25.3z"/>
		<path class="st15" d="M34.8,27.3h30.2c0.2,0,0.4,0.2,0.4,0.4v37.5c0,0.2-0.2,0.4-0.4,0.4H34.8c-0.2,0-0.4-0.2-0.4-0.4V27.7
			C34.4,27.5,34.6,27.3,34.8,27.3z"/>
		<path class="st14" d="M38.2,35.2h20c0.1,0,0.2,0.1,0.2,0.2v1.1c0,0.1-0.1,0.2-0.2,0.2h-20c-0.1,0-0.2-0.1-0.2-0.2v-1.1
			C38,35.3,38.1,35.2,38.2,35.2z"/>
		<path class="st14" d="M38.2,38.3h20c0.1,0,0.2,0.1,0.2,0.2v1.1c0,0.1-0.1,0.2-0.2,0.2h-20c-0.1,0-0.2-0.1-0.2-0.2v-1.1
			C38,38.4,38.1,38.3,38.2,38.3z"/>
		<path class="st14" d="M38.2,41.3h20c0.1,0,0.2,0.1,0.2,0.2v1.1c0,0.1-0.1,0.2-0.2,0.2h-20c-0.1,0-0.2-0.1-0.2-0.2v-1.1
			C38,41.4,38.1,41.3,38.2,41.3z"/>
		<path class="st14" d="M38.2,44.4h20c0.1,0,0.2,0.1,0.2,0.2v1.1c0,0.1-0.1,0.2-0.2,0.2h-20c-0.1,0-0.2-0.1-0.2-0.2v-1.1
			C38,44.5,38.1,44.4,38.2,44.4z"/>
		<path class="st14" d="M38.2,47.4h20c0.1,0,0.2,0.1,0.2,0.2v1.1c0,0.1-0.1,0.2-0.2,0.2h-20c-0.1,0-0.2-0.1-0.2-0.2v-1.1
			C38,47.5,38.1,47.4,38.2,47.4z"/>
		<path class="st14" d="M60.4,35.2h1.2c0.1,0,0.2,0.1,0.2,0.2v1.1c0,0.1-0.1,0.2-0.2,0.2h-1.2c-0.1,0-0.2-0.1-0.2-0.2v-1.1
			C60.2,35.3,60.3,35.2,60.4,35.2z"/>
		<path class="st14" d="M60.4,38.3h1.2c0.1,0,0.2,0.1,0.2,0.2v1.1c0,0.1-0.1,0.2-0.2,0.2h-1.2c-0.1,0-0.2-0.1-0.2-0.2v-1.1
			C60.2,38.4,60.3,38.3,60.4,38.3z"/>
		<path class="st12" d="M61.7,42.9h-1.2c-0.1,0-0.2-0.1-0.2-0.2v-1.1c0-0.1,0.1-0.2,0.2-0.2l0,0h1.2c0.1,0,0.2,0.1,0.2,0.2l0,0v1.1
			C61.9,42.8,61.8,42.9,61.7,42.9z"/>
		<path class="st12" d="M61.7,45.9h-1.2c-0.1,0-0.2-0.1-0.2-0.2v0v-1.1c0-0.1,0.1-0.2,0.2-0.2l0,0h1.2c0.1,0,0.2,0.1,0.2,0.2v0v1.1
			C61.9,45.8,61.8,45.9,61.7,45.9L61.7,45.9z"/>
		<path class="st12" d="M61.7,49h-1.2c-0.1,0-0.2-0.1-0.2-0.2v0v-1.1c0-0.1,0.1-0.2,0.2-0.2l0,0h1.2c0.1,0,0.2,0.1,0.2,0.2v0v1.1
			C61.9,48.9,61.8,49,61.7,49L61.7,49z"/>
		<path class="st16" d="M50.1,56.3c-0.4-0.6-0.3-1.3,0.3-1.7c0.5-0.3,1.2-0.3,1.6,0.1l4,2.7l5.6-4.5c0.6-0.4,1.4-0.3,1.9,0.2
			c0.4,0.4,0.4,1,0.1,1.5c-2.2,2.3-4.4,4.6-6.6,6.9c-0.2,0.3-0.6,0.4-0.9,0.4h-0.1c-0.4,0-0.7-0.2-0.9-0.4L50.1,56.3z"/>
		<path class="st5" d="M63.7,22.9c0.1,0.2,0.1,0.4,0.1,0.7v6.5c0,1-1.2,1.2-1.8,0.9v-2.5c0-0.5-0.5-0.4-0.5,0v3.1
			c0,0.8-1.8,0.9-2,0.2l-0.1-3.1c0-0.5-0.6-0.4-0.5,0v3.3c0,0.7-2,0.8-2.3,0v-3.4c0-0.5-0.5-0.5-0.5,0v3c-0.5,0.5-2,0.3-2.3-1.2
			l-0.1-4.1c-1.2,0.7-2.7,0.7-4,0.2c-0.6-0.2-0.9-0.8-0.7-1.4c0.1-0.4,0.5-0.7,0.9-0.7c1.2-0.3,1.8,0.3,2.6-0.3
			c0.1-0.3,0.3-0.7,0.5-1C56.5,22.1,60,22.2,63.7,22.9z"/>
	</g>
</g>
</svg>
