<svg xmlns="http://www.w3.org/2000/svg" xmlns:xlink="http://www.w3.org/1999/xlink" viewBox="0 0 330.79 308.52"><defs><style>.cls-1{mask:url(#mask);filter:url(#luminosity-noclip-3);}.cls-2,.cls-4{mix-blend-mode:multiply;}.cls-2{fill:url(#radial-gradient);}.cls-3{mask:url(#mask-2);filter:url(#luminosity-noclip-4);}.cls-4{fill:url(#linear-gradient);}.cls-5{fill:none;}.cls-6{fill:url(#linear-gradient-2);}.cls-7{fill:url(#linear-gradient-3);}.cls-8{clip-path:url(#clip-path);}.cls-9{fill:url(#linear-gradient-4);}.cls-10{fill:url(#linear-gradient-5);}.cls-11{fill:url(#linear-gradient-6);}.cls-12{fill:url(#linear-gradient-7);}.cls-13{fill:url(#linear-gradient-8);}.cls-14{fill:url(#linear-gradient-9);}.cls-15{fill:url(#linear-gradient-10);}.cls-16{fill:url(#linear-gradient-11);}.cls-17{fill:url(#linear-gradient-12);}.cls-18{fill:url(#linear-gradient-13);}.cls-19{fill:url(#linear-gradient-14);}.cls-20{fill:url(#linear-gradient-15);}.cls-21{fill:url(#linear-gradient-16);}.cls-22{fill:url(#linear-gradient-17);}.cls-23{fill:url(#linear-gradient-18);}.cls-24{fill:url(#linear-gradient-19);}.cls-25{fill:url(#linear-gradient-20);}.cls-26{fill:url(#linear-gradient-21);}.cls-27{fill:url(#linear-gradient-22);}.cls-28{fill:url(#linear-gradient-23);}.cls-29{fill:url(#linear-gradient-24);}.cls-30{fill:url(#linear-gradient-25);}.cls-31{fill:url(#linear-gradient-26);}.cls-32{fill:url(#linear-gradient-27);}.cls-33{fill:url(#linear-gradient-28);}.cls-34{fill:url(#linear-gradient-29);}.cls-35{fill:url(#linear-gradient-30);}.cls-36{fill:url(#linear-gradient-31);}.cls-37{fill:url(#linear-gradient-32);}.cls-38{fill:url(#linear-gradient-33);}.cls-39{fill:url(#linear-gradient-34);}.cls-40{fill:url(#linear-gradient-35);}.cls-41{fill:url(#linear-gradient-36);}.cls-42{fill:url(#linear-gradient-37);}.cls-43{fill:url(#linear-gradient-38);}.cls-44{fill:url(#linear-gradient-39);}.cls-45{fill:url(#linear-gradient-40);}.cls-46{fill:url(#linear-gradient-41);}.cls-47{fill:url(#linear-gradient-42);}.cls-48{fill:url(#linear-gradient-43);}.cls-49{fill:url(#linear-gradient-44);}.cls-50{fill:url(#linear-gradient-45);}.cls-51{fill:url(#linear-gradient-46);}.cls-52{fill:url(#linear-gradient-47);}.cls-53{fill:url(#linear-gradient-48);}.cls-54{fill:url(#linear-gradient-49);}.cls-55{fill:url(#linear-gradient-50);}.cls-56{fill:url(#linear-gradient-51);}.cls-57{fill:url(#linear-gradient-52);}.cls-58{fill:url(#linear-gradient-53);}.cls-59{fill:url(#linear-gradient-54);}.cls-60{fill:url(#linear-gradient-55);}.cls-61{fill:url(#linear-gradient-56);}.cls-62{fill:url(#linear-gradient-57);}.cls-63{fill:url(#linear-gradient-58);}.cls-64{fill:url(#linear-gradient-59);}.cls-65{fill:url(#linear-gradient-60);}.cls-66{fill:url(#linear-gradient-61);}.cls-67{fill:url(#linear-gradient-62);}.cls-68{mask:url(#mask-3);}.cls-69{fill:url(#radial-gradient-2);}.cls-70{mask:url(#mask-4);}.cls-71{fill:url(#linear-gradient-63);}.cls-72{filter:url(#luminosity-noclip-2);}.cls-73{filter:url(#luminosity-noclip);}</style><filter id="luminosity-noclip" x="12.17" y="-8351.4" width="282.37" height="32766" filterUnits="userSpaceOnUse" color-interpolation-filters="sRGB"><feFlood flood-color="#fff" result="bg"/><feBlend in="SourceGraphic" in2="bg"/></filter><mask id="mask" x="12.17" y="-8351.4" width="282.37" height="32766" maskUnits="userSpaceOnUse"><g class="cls-73"/></mask><radialGradient id="radial-gradient" cx="153.36" cy="154.55" r="141.19" gradientUnits="userSpaceOnUse"><stop offset="0.77"/><stop offset="0.81" stop-color="#030303"/><stop offset="0.84" stop-color="#0c0c0c"/><stop offset="0.87" stop-color="#1c1c1c"/><stop offset="0.9" stop-color="#323232"/><stop offset="0.92" stop-color="#4e4e4e"/><stop offset="0.95" stop-color="#717171"/><stop offset="0.97" stop-color="#9b9b9b"/><stop offset="0.99" stop-color="#cacaca"/><stop offset="1" stop-color="#eaeaea"/></radialGradient><filter id="luminosity-noclip-2" x="20.38" y="-8351.4" width="267.74" height="32766" filterUnits="userSpaceOnUse" color-interpolation-filters="sRGB"><feFlood flood-color="#fff" result="bg"/><feBlend in="SourceGraphic" in2="bg"/></filter><mask id="mask-2" x="20.38" y="-8351.4" width="267.74" height="32766" maskUnits="userSpaceOnUse"><g class="cls-72"/></mask><linearGradient id="linear-gradient" x1="224.46" y1="275.26" x2="87.06" y2="37.29" gradientTransform="translate(275.97 -26.86) rotate(79.1)" gradientUnits="userSpaceOnUse"><stop offset="0.01" stop-color="#fff"/><stop offset="0.12"/><stop offset="0.77"/><stop offset="0.81" stop-color="#030303"/><stop offset="0.84" stop-color="#0c0c0c"/><stop offset="0.87" stop-color="#1c1c1c"/><stop offset="0.89" stop-color="#323232"/><stop offset="0.91" stop-color="#4e4e4e"/><stop offset="0.94" stop-color="#717171"/><stop offset="0.96" stop-color="#9b9b9b"/><stop offset="0.98" stop-color="#cacaca"/><stop offset="0.99" stop-color="#fff"/><stop offset="1" stop-color="#eaeaea"/></linearGradient><linearGradient id="linear-gradient-2" x1="230.87" y1="286.96" x2="77.64" y2="21.56" gradientUnits="userSpaceOnUse"><stop offset="0.06" stop-color="#575756"/><stop offset="0.17" stop-color="#e2e1e1"/><stop offset="0.41" stop-color="#696968"/><stop offset="0.65" stop-color="#575756"/><stop offset="0.84" stop-color="#fff"/><stop offset="0.94" stop-color="#575756"/></linearGradient><linearGradient id="linear-gradient-3" x1="0" y1="154.26" x2="308.51" y2="154.26" xlink:href="#linear-gradient-2"/><clipPath id="clip-path"><path class="cls-5" d="M294.38,154.25A140.12,140.12,0,1,1,154.26,14.13,140.12,140.12,0,0,1,294.38,154.25Z"/></clipPath><linearGradient id="linear-gradient-4" x1="5.35" y1="154.68" x2="545.79" y2="154.68" gradientUnits="userSpaceOnUse"><stop offset="0.5" stop-color="#fff"/><stop offset="0.91" stop-color="#dadada"/></linearGradient><linearGradient id="linear-gradient-5" x1="5.35" y1="22.89" x2="545.79" y2="22.89" gradientUnits="userSpaceOnUse"><stop offset="0.03" stop-color="#901710"/><stop offset="0.42" stop-color="#bb0e12"/><stop offset="0.75" stop-color="#e30613"/></linearGradient><linearGradient id="linear-gradient-6" x1="5.35" y1="66.82" x2="545.79" y2="66.82" xlink:href="#linear-gradient-5"/><linearGradient id="linear-gradient-7" x1="5.35" y1="110.75" x2="545.79" y2="110.75" xlink:href="#linear-gradient-5"/><linearGradient id="linear-gradient-8" x1="5.35" y1="154.67" x2="545.79" y2="154.67" xlink:href="#linear-gradient-5"/><linearGradient id="linear-gradient-9" x1="5.35" y1="198.6" x2="545.79" y2="198.6" xlink:href="#linear-gradient-5"/><linearGradient id="linear-gradient-10" x1="5.35" y1="242.53" x2="545.79" y2="242.53" xlink:href="#linear-gradient-5"/><linearGradient id="linear-gradient-11" x1="5.35" y1="286.46" x2="545.79" y2="286.46" xlink:href="#linear-gradient-5"/><linearGradient id="linear-gradient-12" x1="5.35" y1="88.79" x2="176.03" y2="88.79" gradientUnits="userSpaceOnUse"><stop offset="0.04" stop-color="#20376a"/><stop offset="1" stop-color="#0099c5"/></linearGradient><linearGradient id="linear-gradient-13" x1="11.86" y1="28.56" x2="24.58" y2="28.56" xlink:href="#linear-gradient-4"/><linearGradient id="linear-gradient-14" x1="40.32" y1="28.56" x2="53.04" y2="28.56" xlink:href="#linear-gradient-4"/><linearGradient id="linear-gradient-15" x1="68.78" y1="28.56" x2="81.5" y2="28.56" xlink:href="#linear-gradient-4"/><linearGradient id="linear-gradient-16" x1="97.24" y1="28.56" x2="109.96" y2="28.56" xlink:href="#linear-gradient-4"/><linearGradient id="linear-gradient-17" x1="125.7" y1="28.56" x2="138.42" y2="28.56" xlink:href="#linear-gradient-4"/><linearGradient id="linear-gradient-18" x1="154.16" y1="28.56" x2="166.88" y2="28.56" xlink:href="#linear-gradient-4"/><linearGradient id="linear-gradient-19" x1="25.02" y1="43.57" x2="37.75" y2="43.57" xlink:href="#linear-gradient-4"/><linearGradient id="linear-gradient-20" x1="53.48" y1="43.57" x2="66.2" y2="43.57" xlink:href="#linear-gradient-4"/><linearGradient id="linear-gradient-21" x1="81.94" y1="43.57" x2="94.66" y2="43.57" xlink:href="#linear-gradient-4"/><linearGradient id="linear-gradient-22" x1="110.4" y1="43.57" x2="123.12" y2="43.57" xlink:href="#linear-gradient-4"/><linearGradient id="linear-gradient-23" x1="138.86" y1="43.57" x2="151.58" y2="43.57" xlink:href="#linear-gradient-4"/><linearGradient id="linear-gradient-24" x1="12.47" y1="58.49" x2="25.19" y2="58.49" xlink:href="#linear-gradient-4"/><linearGradient id="linear-gradient-25" x1="40.93" y1="58.49" x2="53.65" y2="58.49" xlink:href="#linear-gradient-4"/><linearGradient id="linear-gradient-26" x1="69.39" y1="58.49" x2="82.11" y2="58.49" xlink:href="#linear-gradient-4"/><linearGradient id="linear-gradient-27" x1="97.85" y1="58.49" x2="110.57" y2="58.49" xlink:href="#linear-gradient-4"/><linearGradient id="linear-gradient-28" x1="126.3" y1="58.49" x2="139.02" y2="58.49" xlink:href="#linear-gradient-4"/><linearGradient id="linear-gradient-29" x1="154.76" y1="58.49" x2="167.49" y2="58.49" xlink:href="#linear-gradient-4"/><linearGradient id="linear-gradient-30" x1="25.63" y1="73.49" x2="38.35" y2="73.49" xlink:href="#linear-gradient-4"/><linearGradient id="linear-gradient-31" x1="54.09" y1="73.49" x2="66.81" y2="73.49" xlink:href="#linear-gradient-4"/><linearGradient id="linear-gradient-32" x1="82.55" y1="73.49" x2="95.27" y2="73.49" xlink:href="#linear-gradient-4"/><linearGradient id="linear-gradient-33" x1="111.01" y1="73.49" x2="123.73" y2="73.49" xlink:href="#linear-gradient-4"/><linearGradient id="linear-gradient-34" x1="139.46" y1="73.49" x2="152.18" y2="73.49" xlink:href="#linear-gradient-4"/><linearGradient id="linear-gradient-35" x1="13.07" y1="88.41" x2="25.79" y2="88.41" xlink:href="#linear-gradient-4"/><linearGradient id="linear-gradient-36" x1="41.53" y1="88.41" x2="54.25" y2="88.41" xlink:href="#linear-gradient-4"/><linearGradient id="linear-gradient-37" x1="69.99" y1="88.41" x2="82.71" y2="88.41" xlink:href="#linear-gradient-4"/><linearGradient id="linear-gradient-38" x1="98.45" y1="88.41" x2="111.17" y2="88.41" xlink:href="#linear-gradient-4"/><linearGradient id="linear-gradient-39" x1="126.91" y1="88.41" x2="139.63" y2="88.41" xlink:href="#linear-gradient-4"/><linearGradient id="linear-gradient-40" x1="155.37" y1="88.41" x2="168.09" y2="88.41" xlink:href="#linear-gradient-4"/><linearGradient id="linear-gradient-41" x1="26.23" y1="103.42" x2="38.95" y2="103.42" xlink:href="#linear-gradient-4"/><linearGradient id="linear-gradient-42" x1="54.69" y1="103.42" x2="67.41" y2="103.42" xlink:href="#linear-gradient-4"/><linearGradient id="linear-gradient-43" x1="83.15" y1="103.42" x2="95.87" y2="103.42" xlink:href="#linear-gradient-4"/><linearGradient id="linear-gradient-44" x1="111.61" y1="103.42" x2="124.33" y2="103.42" xlink:href="#linear-gradient-4"/><linearGradient id="linear-gradient-45" x1="140.07" y1="103.42" x2="152.79" y2="103.42" xlink:href="#linear-gradient-4"/><linearGradient id="linear-gradient-46" x1="13.67" y1="118.34" x2="26.4" y2="118.34" xlink:href="#linear-gradient-4"/><linearGradient id="linear-gradient-47" x1="42.13" y1="118.34" x2="54.85" y2="118.34" xlink:href="#linear-gradient-4"/><linearGradient id="linear-gradient-48" x1="70.59" y1="118.34" x2="83.31" y2="118.34" xlink:href="#linear-gradient-4"/><linearGradient id="linear-gradient-49" x1="99.05" y1="118.34" x2="111.77" y2="118.34" xlink:href="#linear-gradient-4"/><linearGradient id="linear-gradient-50" x1="127.51" y1="118.34" x2="140.23" y2="118.34" xlink:href="#linear-gradient-4"/><linearGradient id="linear-gradient-51" x1="155.97" y1="118.34" x2="168.69" y2="118.34" xlink:href="#linear-gradient-4"/><linearGradient id="linear-gradient-52" x1="26.83" y1="133.34" x2="39.56" y2="133.34" xlink:href="#linear-gradient-4"/><linearGradient id="linear-gradient-53" x1="55.3" y1="133.34" x2="68.02" y2="133.34" xlink:href="#linear-gradient-4"/><linearGradient id="linear-gradient-54" x1="83.76" y1="133.34" x2="96.48" y2="133.34" xlink:href="#linear-gradient-4"/><linearGradient id="linear-gradient-55" x1="112.22" y1="133.34" x2="124.93" y2="133.34" xlink:href="#linear-gradient-4"/><linearGradient id="linear-gradient-56" x1="140.67" y1="133.34" x2="153.39" y2="133.34" xlink:href="#linear-gradient-4"/><linearGradient id="linear-gradient-57" x1="14.28" y1="148.26" x2="27" y2="148.26" xlink:href="#linear-gradient-4"/><linearGradient id="linear-gradient-58" x1="42.74" y1="148.26" x2="55.46" y2="148.26" xlink:href="#linear-gradient-4"/><linearGradient id="linear-gradient-59" x1="71.2" y1="148.26" x2="83.92" y2="148.26" xlink:href="#linear-gradient-4"/><linearGradient id="linear-gradient-60" x1="99.66" y1="148.26" x2="112.38" y2="148.26" xlink:href="#linear-gradient-4"/><linearGradient id="linear-gradient-61" x1="128.12" y1="148.26" x2="140.84" y2="148.26" xlink:href="#linear-gradient-4"/><linearGradient id="linear-gradient-62" x1="156.58" y1="148.26" x2="169.3" y2="148.26" xlink:href="#linear-gradient-4"/><filter id="luminosity-noclip-3" x="12.17" y="13.36" width="282.37" height="282.37" filterUnits="userSpaceOnUse" color-interpolation-filters="sRGB"><feFlood flood-color="#fff" result="bg"/><feBlend in="SourceGraphic" in2="bg"/></filter><mask id="mask-3" x="12.17" y="13.36" width="282.37" height="282.37" maskUnits="userSpaceOnUse"><g class="cls-1"><path class="cls-2" d="M294.55,154.55A141.19,141.19,0,1,1,153.36,13.36,141.18,141.18,0,0,1,294.55,154.55Z"/></g></mask><radialGradient id="radial-gradient-2" cx="153.36" cy="154.55" r="141.19" gradientUnits="userSpaceOnUse"><stop offset="0.77" stop-color="#20294f"/><stop offset="0.97" stop-color="#20294f"/><stop offset="1" stop-color="#20294f"/></radialGradient><filter id="luminosity-noclip-4" x="20.38" y="19.79" width="267.74" height="267.74" filterUnits="userSpaceOnUse" color-interpolation-filters="sRGB"><feFlood flood-color="#fff" result="bg"/><feBlend in="SourceGraphic" in2="bg"/></filter><mask id="mask-4" x="20.38" y="19.79" width="267.74" height="267.74" maskUnits="userSpaceOnUse"><g class="cls-3"><circle class="cls-4" cx="154.25" cy="153.66" r="133.87" transform="translate(-25.81 276.07) rotate(-79.1)"/></g></mask><linearGradient id="linear-gradient-63" x1="224.46" y1="275.26" x2="87.06" y2="37.29" gradientTransform="translate(275.97 -26.86) rotate(79.1)" gradientUnits="userSpaceOnUse"><stop offset="0.01" stop-color="#fff"/><stop offset="0.12" stop-color="#fff"/><stop offset="0.77" stop-color="#fff"/><stop offset="0.97" stop-color="#fff"/><stop offset="0.99" stop-color="#fff"/><stop offset="1" stop-color="#fff"/></linearGradient></defs><g id="Capa_2" data-name="Capa 2"><g id="Capa_1-2" data-name="Capa 1"><path class="cls-6" d="M154.26,307.52C69.75,307.52,1,238.76,1,154.25S69.75,1,154.26,1,307.51,69.75,307.51,154.25,238.75,307.52,154.26,307.52Zm0-280.24c-70,0-127,57-127,127a127,127,0,0,0,254,0C281.24,84.24,224.27,27.28,154.26,27.28Z"/><path class="cls-7" d="M154.26,308.52C69.2,308.52,0,239.31,0,154.25S69.2,0,154.26,0,308.51,69.2,308.51,154.25,239.31,308.52,154.26,308.52ZM154.26,2C70.3,2,2,70.3,2,154.25S70.3,306.52,154.26,306.52s152.25-68.31,152.25-152.27S238.21,2,154.26,2Zm0,280.23c-70.57,0-128-57.41-128-128s57.42-128,128-128a128,128,0,1,1,0,256Zm0-253.95a126,126,0,1,0,126,126A126.12,126.12,0,0,0,154.26,28.28Z"/><g class="cls-8"><rect class="cls-9" x="5.35" y="12.25" width="325.44" height="284.86"/><rect class="cls-10" x="5.35" y="12.25" width="325.44" height="21.3"/><rect class="cls-11" x="5.35" y="56.17" width="325.44" height="21.3"/><rect class="cls-12" x="5.35" y="100.1" width="325.44" height="21.3"/><rect class="cls-13" x="5.35" y="144.03" width="325.44" height="21.3"/><rect class="cls-14" x="5.35" y="187.95" width="325.44" height="21.3"/><rect class="cls-15" x="5.35" y="231.88" width="325.44" height="21.3"/><rect class="cls-16" x="5.35" y="275.81" width="325.44" height="21.3"/><rect class="cls-17" x="5.35" y="12.25" width="170.68" height="153.08"/><polygon class="cls-18" points="18.23 22.51 20.19 26.5 24.58 27.14 21.4 30.23 22.15 34.61 18.23 32.55 14.29 34.61 15.04 30.23 11.86 27.14 16.26 26.5 18.23 22.51"/><polygon class="cls-19" points="46.68 22.51 48.65 26.5 53.04 27.14 49.86 30.23 50.61 34.61 46.68 32.55 42.75 34.61 43.5 30.23 40.32 27.14 44.72 26.5 46.68 22.51"/><polygon class="cls-20" points="75.14 22.51 77.11 26.5 81.5 27.14 78.32 30.23 79.07 34.61 75.14 32.55 71.21 34.61 71.96 30.23 68.78 27.14 73.18 26.5 75.14 22.51"/><polygon class="cls-21" points="103.6 22.51 105.56 26.5 109.96 27.14 106.78 30.23 107.53 34.61 103.6 32.55 99.67 34.61 100.42 30.23 97.24 27.14 101.64 26.5 103.6 22.51"/><polygon class="cls-22" points="132.06 22.51 134.03 26.5 138.42 27.14 135.24 30.23 135.99 34.61 132.06 32.55 128.13 34.61 128.88 30.23 125.7 27.14 130.09 26.5 132.06 22.51"/><polygon class="cls-23" points="160.52 22.51 162.48 26.5 166.88 27.14 163.7 30.23 164.45 34.61 160.52 32.55 156.59 34.61 157.34 30.23 154.16 27.14 158.55 26.5 160.52 22.51"/><polygon class="cls-24" points="31.39 37.52 33.35 41.5 37.74 42.14 34.56 45.24 35.31 49.62 31.39 47.55 27.45 49.62 28.2 45.24 25.02 42.14 29.42 41.5 31.39 37.52"/><polygon class="cls-25" points="59.84 37.52 61.81 41.5 66.2 42.14 63.02 45.24 63.77 49.62 59.84 47.55 55.91 49.62 56.66 45.24 53.48 42.14 57.88 41.5 59.84 37.52"/><polygon class="cls-26" points="88.3 37.52 90.27 41.5 94.66 42.14 91.48 45.24 92.23 49.62 88.3 47.55 84.37 49.62 85.12 45.24 81.94 42.14 86.34 41.5 88.3 37.52"/><polygon class="cls-27" points="116.76 37.52 118.73 41.5 123.12 42.14 119.94 45.24 120.69 49.62 116.76 47.55 112.83 49.62 113.58 45.24 110.4 42.14 114.8 41.5 116.76 37.52"/><polygon class="cls-28" points="145.22 37.52 147.19 41.5 151.58 42.14 148.4 45.24 149.15 49.62 145.22 47.55 141.29 49.62 142.04 45.24 138.86 42.14 143.26 41.5 145.22 37.52"/><polygon class="cls-29" points="18.83 52.44 20.79 56.42 25.19 57.06 22.01 60.16 22.76 64.54 18.83 62.47 14.89 64.54 15.65 60.16 12.47 57.06 16.86 56.42 18.83 52.44"/><polygon class="cls-30" points="47.29 52.44 49.25 56.42 53.65 57.06 50.47 60.16 51.22 64.54 47.29 62.47 43.36 64.54 44.11 60.16 40.93 57.06 45.32 56.42 47.29 52.44"/><polygon class="cls-31" points="75.75 52.44 77.71 56.42 82.11 57.06 78.93 60.16 79.68 64.54 75.75 62.47 71.81 64.54 72.56 60.16 69.39 57.06 73.78 56.42 75.75 52.44"/><polygon class="cls-32" points="104.21 52.44 106.17 56.42 110.56 57.06 107.39 60.16 108.14 64.54 104.21 62.47 100.27 64.54 101.03 60.16 97.85 57.06 102.24 56.42 104.21 52.44"/><polygon class="cls-33" points="132.66 52.44 134.63 56.42 139.02 57.06 135.85 60.16 136.59 64.54 132.66 62.47 128.73 64.54 129.48 60.16 126.3 57.06 130.7 56.42 132.66 52.44"/><polygon class="cls-34" points="161.13 52.44 163.09 56.42 167.49 57.06 164.31 60.16 165.06 64.54 161.13 62.47 157.19 64.54 157.94 60.16 154.76 57.06 159.16 56.42 161.13 52.44"/><polygon class="cls-35" points="31.98 67.44 33.95 71.43 38.35 72.07 35.17 75.17 35.92 79.54 31.98 77.48 28.06 79.54 28.81 75.17 25.63 72.07 30.02 71.43 31.98 67.44"/><polygon class="cls-36" points="60.45 67.44 62.41 71.43 66.81 72.07 63.63 75.17 64.38 79.54 60.45 77.48 56.52 79.54 57.27 75.17 54.09 72.07 58.48 71.43 60.45 67.44"/><polygon class="cls-37" points="88.91 67.44 90.87 71.43 95.27 72.07 92.09 75.17 92.84 79.54 88.91 77.48 84.98 79.54 85.73 75.17 82.55 72.07 86.94 71.43 88.91 67.44"/><polygon class="cls-38" points="117.37 67.44 119.33 71.43 123.73 72.07 120.54 75.17 121.3 79.54 117.37 77.48 113.43 79.54 114.18 75.17 111.01 72.07 115.4 71.43 117.37 67.44"/><polygon class="cls-39" points="145.82 67.44 147.79 71.43 152.18 72.07 149 75.17 149.75 79.54 145.82 77.48 141.89 79.54 142.64 75.17 139.46 72.07 143.86 71.43 145.82 67.44"/><polygon class="cls-40" points="19.43 82.36 21.4 86.34 25.79 86.98 22.61 90.08 23.36 94.46 19.43 92.39 15.5 94.46 16.25 90.08 13.07 86.98 17.47 86.34 19.43 82.36"/><polygon class="cls-41" points="47.89 82.36 49.85 86.34 54.25 86.98 51.07 90.08 51.82 94.46 47.89 92.39 43.96 94.46 44.71 90.08 41.53 86.98 45.93 86.34 47.89 82.36"/><polygon class="cls-42" points="76.35 82.36 78.31 86.34 82.71 86.98 79.53 90.08 80.28 94.46 76.35 92.39 72.42 94.46 73.17 90.08 69.99 86.98 74.39 86.34 76.35 82.36"/><polygon class="cls-43" points="104.81 82.36 106.77 86.34 111.17 86.98 107.99 90.08 108.74 94.46 104.81 92.39 100.88 94.46 101.63 90.08 98.45 86.98 102.84 86.34 104.81 82.36"/><polygon class="cls-44" points="133.27 82.36 135.23 86.34 139.63 86.98 136.45 90.08 137.2 94.46 133.27 92.39 129.34 94.46 130.09 90.08 126.91 86.98 131.3 86.34 133.27 82.36"/><polygon class="cls-45" points="161.73 82.36 163.69 86.34 168.09 86.98 164.91 90.08 165.66 94.46 161.73 92.39 157.8 94.46 158.55 90.08 155.37 86.98 159.76 86.34 161.73 82.36"/><polygon class="cls-46" points="32.59 97.37 34.56 101.35 38.95 101.99 35.77 105.09 36.52 109.47 32.59 107.4 28.66 109.47 29.41 105.09 26.23 101.99 30.63 101.35 32.59 97.37"/><polygon class="cls-47" points="61.05 97.37 63.02 101.35 67.41 101.99 64.23 105.09 64.98 109.47 61.05 107.4 57.12 109.47 57.87 105.09 54.69 101.99 59.09 101.35 61.05 97.37"/><polygon class="cls-48" points="89.51 97.37 91.48 101.35 95.87 101.99 92.69 105.09 93.44 109.47 89.51 107.4 85.58 109.47 86.33 105.09 83.15 101.99 87.54 101.35 89.51 97.37"/><polygon class="cls-49" points="117.97 97.37 119.93 101.35 124.33 101.99 121.15 105.09 121.9 109.47 117.97 107.4 114.04 109.47 114.79 105.09 111.61 101.99 116 101.35 117.97 97.37"/><polygon class="cls-50" points="146.43 97.37 148.39 101.35 152.79 101.99 149.61 105.09 150.36 109.47 146.43 107.4 142.5 109.47 143.25 105.09 140.07 101.99 144.46 101.35 146.43 97.37"/><polygon class="cls-51" points="20.04 112.29 22 116.27 26.4 116.91 23.22 120.01 23.97 124.39 20.04 122.32 16.1 124.39 16.86 120.01 13.68 116.91 18.07 116.27 20.04 112.29"/><polygon class="cls-52" points="48.49 112.29 50.46 116.27 54.85 116.91 51.68 120.01 52.42 124.39 48.49 122.32 44.56 124.39 45.31 120.01 42.13 116.91 46.53 116.27 48.49 112.29"/><polygon class="cls-53" points="76.95 112.29 78.92 116.27 83.31 116.91 80.14 120.01 80.89 124.39 76.95 122.32 73.02 124.39 73.77 120.01 70.59 116.91 74.99 116.27 76.95 112.29"/><polygon class="cls-54" points="105.41 112.29 107.38 116.27 111.77 116.91 108.59 120.01 109.34 124.39 105.41 122.32 101.48 124.39 102.23 120.01 99.05 116.91 103.45 116.27 105.41 112.29"/><polygon class="cls-55" points="133.87 112.29 135.84 116.27 140.23 116.91 137.05 120.01 137.8 124.39 133.87 122.32 129.94 124.39 130.69 120.01 127.51 116.91 131.91 116.27 133.87 112.29"/><polygon class="cls-56" points="162.33 112.29 164.3 116.27 168.69 116.91 165.51 120.01 166.26 124.39 162.33 122.32 158.4 124.39 159.15 120.01 155.97 116.91 160.37 116.27 162.33 112.29"/><polygon class="cls-57" points="33.2 127.3 35.16 131.28 39.56 131.92 36.38 135.02 37.12 139.39 33.2 137.33 29.27 139.39 30.02 135.02 26.83 131.92 31.23 131.28 33.2 127.3"/><polygon class="cls-58" points="61.66 127.3 63.62 131.28 68.02 131.92 64.84 135.02 65.58 139.39 61.66 137.33 57.72 139.39 58.48 135.02 55.3 131.92 59.69 131.28 61.66 127.3"/><polygon class="cls-59" points="90.12 127.3 92.08 131.28 96.48 131.92 93.29 135.02 94.04 139.39 90.12 137.33 86.18 139.39 86.93 135.02 83.76 131.92 88.15 131.28 90.12 127.3"/><polygon class="cls-60" points="118.58 127.3 120.54 131.28 124.93 131.92 121.75 135.02 122.5 139.39 118.58 137.33 114.64 139.39 115.39 135.02 112.22 131.92 116.61 131.28 118.58 127.3"/><polygon class="cls-61" points="147.03 127.3 149 131.28 153.39 131.92 150.22 135.02 150.96 139.39 147.03 137.33 143.1 139.39 143.85 135.02 140.67 131.92 145.07 131.28 147.03 127.3"/><polygon class="cls-62" points="20.64 142.21 22.61 146.19 27 146.83 23.82 149.93 24.57 154.31 20.64 152.24 16.71 154.31 17.46 149.93 14.28 146.83 18.68 146.19 20.64 142.21"/><polygon class="cls-63" points="49.1 142.21 51.06 146.19 55.46 146.83 52.28 149.93 53.03 154.31 49.1 152.24 45.17 154.31 45.92 149.93 42.74 146.83 47.14 146.19 49.1 142.21"/><polygon class="cls-64" points="77.56 142.21 79.52 146.19 83.92 146.83 80.74 149.93 81.49 154.31 77.56 152.24 73.63 154.31 74.38 149.93 71.2 146.83 75.59 146.19 77.56 142.21"/><polygon class="cls-65" points="106.02 142.21 107.98 146.19 112.38 146.83 109.2 149.93 109.95 154.31 106.02 152.24 102.09 154.31 102.84 149.93 99.66 146.83 104.05 146.19 106.02 142.21"/><polygon class="cls-66" points="134.48 142.21 136.44 146.19 140.84 146.83 137.66 149.93 138.41 154.31 134.48 152.24 130.55 154.31 131.3 149.93 128.12 146.83 132.51 146.19 134.48 142.21"/><polygon class="cls-67" points="162.94 142.21 164.9 146.19 169.3 146.83 166.12 149.93 166.87 154.31 162.94 152.24 159 154.31 159.76 149.93 156.58 146.83 160.97 146.19 162.94 142.21"/></g><g class="cls-68"><path class="cls-69" d="M294.55,154.55A141.19,141.19,0,1,1,153.36,13.36,141.18,141.18,0,0,1,294.55,154.55Z"/></g><g class="cls-70"><circle class="cls-71" cx="154.25" cy="153.66" r="133.87" transform="translate(-25.81 276.07) rotate(-79.1)"/></g></g></g></svg>