<svg xmlns="http://www.w3.org/2000/svg" xmlns:xlink="http://www.w3.org/1999/xlink" viewBox="0 0 135 135"><defs><style>.cls-1{fill:url(#Degradado_sin_nombre_20);}.cls-2{fill:#fff;}</style><linearGradient id="Degradado_sin_nombre_20" x1="69.19" y1="-47.45" x2="66.29" y2="149.67" gradientUnits="userSpaceOnUse"><stop offset="0.24" stop-color="#264653"/><stop offset="0.24" stop-color="#264754"/><stop offset="0.26" stop-color="#276266"/><stop offset="0.28" stop-color="#287875"/><stop offset="0.31" stop-color="#298981"/><stop offset="0.35" stop-color="#2a9489"/><stop offset="0.39" stop-color="#2a9b8e"/><stop offset="0.53" stop-color="#2a9d8f"/><stop offset="0.79" stop-color="#f5a261"/><stop offset="0.97" stop-color="#e86f51"/></linearGradient></defs><g id="Capa_2" data-name="Capa 2"><g id="Capa_2-2" data-name="Capa 2"><path class="cls-1" d="M135,67.5a67.5,67.5,0,1,0-78,66.68V87H39.81V67.5H57V52.63C57,35.71,67,26.37,82.45,26.37a103.77,103.77,0,0,1,15.11,1.32V44.3H89.05c-8.39,0-11,5.2-11,10.54V67.5H96.77L93.77,87H78.05v47.17A67.51,67.51,0,0,0,135,67.5Z"/><path class="cls-2" d="M93.77,87l3-19.51H78.05V54.84c0-5.34,2.61-10.54,11-10.54h8.51V27.69a103.77,103.77,0,0,0-15.11-1.32C67,26.37,57,35.71,57,52.63V67.5H39.81V87H57v47.17a68.28,68.28,0,0,0,21.1,0V87Z"/></g></g></svg>