<?xml version="1.0" encoding="utf-8"?>
<!-- Generator: Adobe Illustrator 25.2.3, SVG Export Plug-In . SVG Version: 6.00 Build 0)  -->
<svg version="1.1" id="Capa_1" xmlns="http://www.w3.org/2000/svg" xmlns:xlink="http://www.w3.org/1999/xlink" x="0px" y="0px"
	 viewBox="0 0 67.6 67.6" style="enable-background:new 0 0 67.6 67.6;" xml:space="preserve">
<style type="text/css">
	.st0{fill-rule:evenodd;clip-rule:evenodd;fill:#DDD8C1;}
	.st1{fill-rule:evenodd;clip-rule:evenodd;fill:#CAC7BC;}
	.st2{fill-rule:evenodd;clip-rule:evenodd;fill:#DDDACB;}
	.st3{fill-rule:evenodd;clip-rule:evenodd;fill:#F1F9FB;}
	.st4{fill-rule:evenodd;clip-rule:evenodd;fill:#09426A;}
	.st5{fill-rule:evenodd;clip-rule:evenodd;fill:#B7B6B2;}
	.st6{fill-rule:evenodd;clip-rule:evenodd;fill:#582E13;}
	.st7{fill-rule:evenodd;clip-rule:evenodd;fill:#492712;}
	.st8{fill-rule:evenodd;clip-rule:evenodd;fill:#B2D8DE;}
	.st9{fill-rule:evenodd;clip-rule:evenodd;fill:#F5A261;}
	.st10{fill-rule:evenodd;clip-rule:evenodd;fill:#F2A672;}
	.st11{fill-rule:evenodd;clip-rule:evenodd;fill:#E74020;}
	.st12{fill-rule:evenodd;clip-rule:evenodd;fill:#EA5833;}
	.st13{fill-rule:evenodd;clip-rule:evenodd;fill:#345661;}
	.st14{fill-rule:evenodd;clip-rule:evenodd;fill:#4DAD9F;}
	.st15{fill-rule:evenodd;clip-rule:evenodd;fill:#264653;}
	.st16{fill-rule:evenodd;clip-rule:evenodd;fill:#2A9D8F;}
	.st17{fill-rule:evenodd;clip-rule:evenodd;fill:none;}
</style>
<g id="Capa_2_1_">
	<g id="Capa_2-2">
		<path class="st0" d="M24.2,26.8c0.2-3,1.3-6.2,0.5-9c-1.7-4-9.8-5.9-13.7-5.2c-2.4,4.1-1.4,9.1-1,13.8L24.2,26.8z"/>
		<path class="st1" d="M17,26.7V13c3.3,0.8,6.6,2.4,7.6,4.8c0.7,2.8-0.3,6-0.5,9L17,26.7z"/>
		<path class="st2" d="M16.9,55.2c2.1,0,4.2-0.1,6.4-0.3V35.7l-0.7-0.3c-1.6-0.7-3.5-1.5-5.6-1.8V55.2z"/>
		<path class="st2" d="M16.9,55.2c-2.1,0-4.2-0.1-6.4-0.3V35.7l0.7-0.3c1.6-0.7,3.5-1.5,5.6-1.8V55.2z"/>
		<path class="st1" d="M12.4,29.9h9.1v5.5c-3,2.4-6,2.5-9.1,0V29.9z"/>
		<path class="st2" d="M13.2,18.6c-1.3-0.3-2.5,1.1-2.7,2.4c-0.2,1.2-0.4,2.4-0.4,3.6c0,0,0.2,0-0.1,0s-1.1,0.2-1.1,1.3
			c0,0.8,0.8,3.3,1.7,2.9c1.4,3.7,3.3,5.8,6.3,6.6c0.1-0.1,0.1,0,0.1-0.1V19C15.7,19,14.4,18.9,13.2,18.6z"/>
		<path class="st0" d="M20.8,18.6c1.3-0.3,2.5,1.1,2.7,2.4c0.2,1.2,0.4,2.4,0.4,3.6c0,0-0.2,0,0.1,0s1.1,0.2,1.1,1.3
			c0,0.8-0.8,3.3-1.7,2.9c-1.4,3.8-3.3,5.9-6.5,6.6V19C18.2,19,19.5,18.9,20.8,18.6z"/>
		<polygon class="st0" points="16.9,37.2 18.5,37.2 17.8,39.6 16.9,39.6 16.9,39.6 16,39.6 15.4,37.2 		"/>
		<polygon class="st1" points="17.8,39.6 18.4,48.9 16.9,51.7 15.4,48.9 16,39.6 		"/>
		<path class="st3" d="M16.9,37.2l-2.7,2.6l-3-4.4l1.1-0.6C13.5,36,15,36.7,16.9,37.2z"/>
		<path class="st1" d="M16.9,51.4l-6.5-15.6c-5.9,2.5-9.7,4.5-10.4,12c2.7,4.8,9.1,8.7,16.9,8.7V51.4z"/>
		<path class="st4" d="M5.3,53.2c0.2,0.2,0.5,0.3,0.8,0.4l0-3.1L5.3,53.2z"/>
		<polygon class="st2" points="16.9,51.4 16.9,55.4 10.8,44.4 12.6,42.1 9.8,41.2 8.5,36.6 11.6,35.3 		"/>
		<path class="st3" d="M16.9,37.2l2.7,2.6l3-4.4l-1.1-0.6C20.3,36,18.8,36.7,16.9,37.2z"/>
		<path class="st5" d="M16.9,51.4l6.5-15.6c5.9,2.5,9.7,4.5,10.4,12c-2.7,4.8-9.1,8.7-16.9,8.7V51.4z"/>
		<path class="st4" d="M28.5,53.2c-0.2,0.2-0.5,0.3-0.8,0.4l0-3.1L28.5,53.2z"/>
		<polygon class="st1" points="16.9,51.4 16.9,55.4 23.1,44.4 21.2,42.1 24,41.2 25.3,36.6 22.3,35.3 		"/>
		<path class="st0" d="M24.2,26.8c0.2-3,1.3-6.2,0.5-9c-1.7-4-9.8-5.9-13.7-5.2c-2.4,4.1-1.4,9.1-1,13.8L24.2,26.8z"/>
		<path class="st1" d="M17,26.7V13c3.3,0.8,6.6,2.4,7.6,4.8c0.7,2.8-0.3,6-0.5,9L17,26.7z"/>
		<path class="st2" d="M16.9,55.2c2.1,0,4.2-0.1,6.4-0.3V35.7l-0.7-0.3c-1.6-0.7-3.5-1.5-5.6-1.8V55.2z"/>
		<path class="st2" d="M16.9,55.2c-2.1,0-4.2-0.1-6.4-0.3V35.7l0.7-0.3c1.6-0.7,3.5-1.5,5.6-1.8V55.2z"/>
		<path class="st1" d="M12.4,29.9h9.1v5.5c-3,2.4-6,2.5-9.1,0V29.9z"/>
		<path class="st2" d="M13.2,18.6c-1.3-0.3-2.5,1.1-2.7,2.4c-0.2,1.2-0.4,2.4-0.4,3.6c0,0,0.2,0-0.1,0s-1.1,0.2-1.1,1.3
			c0,0.8,0.8,3.3,1.7,2.9c1.4,3.7,3.3,5.8,6.3,6.6c0.1-0.1,0.1,0,0.1-0.1V19C15.7,19,14.4,18.9,13.2,18.6z"/>
		<path class="st0" d="M20.8,18.6c1.3-0.3,2.5,1.1,2.7,2.4c0.2,1.2,0.4,2.4,0.4,3.6c0,0-0.2,0,0.1,0s1.1,0.2,1.1,1.3
			c0,0.8-0.8,3.3-1.7,2.9c-1.4,3.8-3.3,5.9-6.5,6.6V19C18.2,19,19.5,18.9,20.8,18.6z"/>
		<polygon class="st0" points="16.9,37.2 18.5,37.2 17.8,39.6 16.9,39.6 16.9,39.6 16,39.6 15.4,37.2 		"/>
		<polygon class="st1" points="17.8,39.6 18.4,48.9 16.9,51.7 15.4,48.9 16,39.6 		"/>
		<path class="st3" d="M16.9,37.2l-2.7,2.6l-3-4.4l1.1-0.6C13.5,36,15,36.7,16.9,37.2z"/>
		<path class="st1" d="M16.9,51.4l-6.5-15.6c-5.9,2.5-9.7,4.5-10.4,12c2.7,4.8,9.1,8.7,16.9,8.7V51.4z"/>
		<polygon class="st2" points="16.9,51.4 16.9,55.4 10.8,44.4 12.6,42.1 9.8,41.2 8.5,36.6 11.6,35.3 		"/>
		<path class="st3" d="M16.9,37.2l2.7,2.6l3-4.4l-1.1-0.6C20.3,36,18.8,36.7,16.9,37.2z"/>
		<path class="st5" d="M16.9,51.4l6.5-15.6c5.9,2.5,9.7,4.5,10.4,12c-2.7,4.8-9.1,8.7-16.9,8.7V51.4z"/>
		<polygon class="st1" points="16.9,51.4 16.9,55.4 23.1,44.4 21.2,42.1 24,41.2 25.3,36.6 22.3,35.3 		"/>
		<path class="st0" d="M57.9,26.8c0.2-3,1.3-6.2,0.5-9c-1.7-4-9.8-5.9-13.7-5.2c-2.4,4.1-1.4,9.1-1,13.8L57.9,26.8z"/>
		<path class="st1" d="M50.8,26.7V13c3.3,0.8,6.6,2.4,7.6,4.8c0.7,2.8-0.3,6-0.5,9L50.8,26.7z"/>
		<path class="st2" d="M50.7,55.2c2.1,0,4.2-0.1,6.4-0.3V35.7l-0.7-0.3c-1.6-0.7-3.5-1.5-5.6-1.8V55.2z"/>
		<path class="st2" d="M50.7,55.2c-2.1,0-4.2-0.1-6.4-0.3V35.7l0.7-0.3c1.6-0.7,3.5-1.5,5.6-1.8V55.2z"/>
		<path class="st1" d="M46.2,29.9h9.1v5.5c-3,2.4-6,2.5-9.1,0V29.9z"/>
		<path class="st2" d="M47,18.6c-1.3-0.3-2.5,1.1-2.7,2.4c-0.2,1.2-0.4,2.4-0.4,3.6c0,0,0.2,0-0.1,0c-0.3,0-1.1,0.2-1.1,1.3
			c0,0.8,0.8,3.3,1.7,2.9c1.4,3.7,3.3,5.8,6.3,6.6c0.1-0.1,0.1,0,0.1-0.1V19C49.5,19,48.2,18.9,47,18.6z"/>
		<path class="st0" d="M54.6,18.6c1.3-0.3,2.5,1.1,2.7,2.4c0.2,1.2,0.4,2.4,0.4,3.6c0,0-0.2,0,0.1,0s1.1,0.2,1.1,1.3
			c0,0.8-0.8,3.3-1.7,2.9c-1.4,3.8-3.3,5.9-6.5,6.6V19C52,19,53.3,18.9,54.6,18.6z"/>
		<polygon class="st0" points="50.7,37.2 52.2,37.2 51.6,39.6 50.7,39.6 50.7,39.6 49.8,39.6 49.1,37.2 		"/>
		<polygon class="st1" points="51.6,39.6 52.2,48.9 50.7,51.7 49.2,48.9 49.8,39.6 		"/>
		<path class="st3" d="M50.7,37.2L48,39.8l-3-4.4l1.1-0.6C47.3,36,48.8,36.7,50.7,37.2z"/>
		<path class="st1" d="M50.7,51.4l-6.5-15.6c-5.9,2.5-9.7,4.5-10.4,12c2.7,4.8,9.1,8.7,16.9,8.7L50.7,51.4z"/>
		<polygon class="st2" points="50.7,51.4 50.7,55.4 44.5,44.4 46.4,42.1 43.6,41.2 42.3,36.6 45.4,35.3 		"/>
		<path class="st3" d="M50.7,37.2l2.7,2.6l3-4.4l-1.1-0.6C54.1,36,52.6,36.7,50.7,37.2z"/>
		<path class="st5" d="M50.7,51.4l6.5-15.6c5.9,2.5,9.7,4.5,10.4,12c-2.7,4.8-9.1,8.7-16.9,8.7L50.7,51.4z"/>
		<polygon class="st1" points="50.7,51.4 50.7,55.4 56.8,44.4 55,42.1 57.8,41.2 59.1,36.6 56.1,35.3 		"/>
		<path class="st6" d="M45,23.6c0.3-4,1.7-8.2,0.7-12c-2.3-5.3-13.1-7.9-18.3-6.9c-3.2,5.5-1.9,12.2-1.3,18.4L45,23.6z"/>
		<path class="st7" d="M35.4,23.3V5.2c4.4,1,8.8,3.2,10.2,6.4c1,3.7-0.4,8-0.7,12L35.4,23.3z"/>
		<path class="st8" d="M35.3,61.3c2.8,0,5.7-0.1,8.5-0.4V35.4l-1-0.4c-2.1-0.9-4.7-2-7.5-2.4V61.3z"/>
		<path class="st8" d="M35.3,61.3c-2.8,0-5.7-0.1-8.5-0.4V35.4l1-0.4c2.1-0.9,4.7-2,7.5-2.4V61.3z"/>
		<path class="st9" d="M29.2,27.6h12.1v7.3c-4,3.2-8.1,3.3-12.1,0V27.6z"/>
		<path class="st10" d="M30.3,12.6c-1.7-0.3-3.4,1.4-3.7,3.1c-0.3,1.6-0.5,3.2-0.5,4.8c0,0,0.2,0-0.1,0s-1.5,0.3-1.4,1.8
			c0,1.1,1,4.4,2.3,3.9c1.9,5,4.4,7.8,8.5,8.8c0.1-0.1,0.1,0,0.2-0.1V13.1C33.7,13.1,32,13,30.3,12.6z"/>
		<path class="st9" d="M40.4,12.6c1.7-0.3,3.4,1.4,3.7,3.1c0.3,1.6,0.5,3.2,0.6,4.8c0,0-0.2,0,0.1,0s1.5,0.3,1.4,1.8
			c0,1.1-1,4.4-2.3,3.9c-1.9,5-4.4,7.8-8.6,8.8V13.2C37,13.1,38.7,13,40.4,12.6z"/>
		<polygon class="st11" points="35.3,37.3 37.4,37.3 36.5,40.6 35.3,40.6 35.3,40.6 34.1,40.6 33.2,37.3 		"/>
		<polygon class="st12" points="36.5,40.5 37.3,53 35.3,56.7 33.2,53 34.1,40.5 		"/>
		<path class="st3" d="M35.3,37.3l-3.5,3.5l-4-5.8l1.5-0.8C30.7,35.7,32.8,36.7,35.3,37.3z"/>
		<path class="st13" d="M35.3,56.3l-8.7-20.8c-7.9,3.4-12.9,6-13.8,16c3.6,6.4,12.1,11.6,22.5,11.6V56.3z"/>
		<path class="st4" d="M19.9,58.8c0.3,0.2,0.7,0.4,1,0.6l0-4.1L19.9,58.8z"/>
		<polygon class="st14" points="35.3,56.3 35.3,61.6 27.1,46.9 29.5,44 25.8,42.7 24.1,36.6 28.2,34.8 		"/>
		<path class="st3" d="M35.3,37.3l3.6,3.5l4-5.8l-1.5-0.8C39.8,35.7,37.8,36.7,35.3,37.3z"/>
		<path class="st15" d="M35.3,56.3L44,35.5c7.9,3.4,12.9,6,13.8,16c-3.6,6.4-12.1,11.6-22.5,11.6L35.3,56.3z"/>
		<path class="st4" d="M50.7,58.8c-0.3,0.2-0.7,0.4-1,0.6l0-4.1L50.7,58.8z"/>
		<polygon class="st16" points="35.3,56.3 35.3,61.6 43.5,46.9 41,44 44.8,42.7 46.4,36.6 42.5,34.8 		"/>
	</g>
</g>
<rect x="0" y="0" class="st17" width="67.6" height="67.6"/>
</svg>
