<?xml version="1.0" encoding="utf-8"?>
<!-- Generator: Adobe Illustrator 25.2.3, SVG Export Plug-In . SVG Version: 6.00 Build 0)  -->
<svg version="1.1" id="Capa_1" xmlns="http://www.w3.org/2000/svg" xmlns:xlink="http://www.w3.org/1999/xlink" x="0px" y="0px"
	 viewBox="0 0 144 143.8" style="enable-background:new 0 0 144 143.8;" xml:space="preserve">
<style type="text/css">
	.st0{fill:none;stroke:#E86F51;stroke-width:4;stroke-miterlimit:10;}
	.st1{fill:#E86F51;}
</style>
<g>
	<g id="Capa_2_1_">
		<g id="Capa_2-2">
			
				<image style="overflow:visible;opacity:0.2;enable-background:new    ;" width="600" height="599" xlink:href="7B6CA302.png"  transform="matrix(0.24 0 0 0.24 0 0)">
			</image>
			<path class="st0" d="M6.2,69.9C6.2,34.6,34.8,6.1,70,6.1s63.8,28.6,63.8,63.8s-28.6,63.8-63.8,63.8l0,0
				C34.8,133.7,6.2,105.1,6.2,69.9z"/>
			<path class="st1" d="M70.3,36.8c-8,0-21.6,3.6-21.6,23.4c0,22.6,21.6,43.8,21.6,43.8s21.6-21.2,21.6-43.8
				C91.9,42,78.3,36.8,70.3,36.8z M70.3,68.1c-5.4,0-9.7-4.3-9.8-9.7s4.3-9.7,9.7-9.8c5.4,0,9.7,4.3,9.8,9.7c0,0,0,0,0,0
				C80,63.7,75.7,68.1,70.3,68.1z"/>
		</g>
	</g>
</g>
</svg>
