<?xml version="1.0" encoding="utf-8"?>
<!-- Generator: Adobe Illustrator 25.2.3, SVG Export Plug-In . SVG Version: 6.00 Build 0)  -->
<svg version="1.1" id="Capa_1" xmlns="http://www.w3.org/2000/svg" xmlns:xlink="http://www.w3.org/1999/xlink" x="0px" y="0px"
	 viewBox="0 0 148 48.8" style="enable-background:new 0 0 148 48.8;" xml:space="preserve">
<style type="text/css">
	.st0{fill:#F5A261;}
</style>
<g id="Capa_2_1_">
	<g id="Capa_3">
		<path class="st0" d="M36.1,11.4c-1.8,1.8-4.7,1.9-6.6,0.2L24.8,7c-0.4-0.4-0.8-0.8-1.2-1.1s-0.7-0.7-1.2-1
			c-0.4-0.3-0.8-0.6-1.3-0.8c-0.4-0.3-0.9-0.5-1.4-0.7C18,2.6,16,2.3,14,2.5c-4,0.3-7.7,2.5-9.8,6c-1,1.7-1.6,3.6-1.8,5.6
			c-0.1,2,0.2,3.9,1,5.8c0.8,1.8,2,3.4,3.5,4.6s3.3,2.1,5.2,2.5c3.8,0.8,7.8-0.3,10.7-3L40.9,5.7L42,4.6c0.4-0.4,0.9-0.8,1.3-1.2
			c0.9-0.7,1.9-1.4,3-1.9c2.2-1,4.6-1.6,7-1.5c4.9,0.2,9.4,2.7,12.1,6.8c1.3,2,2.1,4.3,2.4,6.7c0.2,2.4-0.1,4.8-1,7.1
			c-0.2,0.6-0.5,1.1-0.8,1.6s-0.6,1-1,1.5c-0.3,0.5-0.7,1-1.1,1.4l-0.6,0.6l-0.6,0.6l-4.6,4.5c-3.1,3-6.1,6-9.2,9l-4.6,4.5
			c-0.4,0.4-0.8,0.8-1.3,1.2s-1,0.7-1.4,1c-1,0.6-2.1,1.1-3.2,1.5c-4.5,1.5-9.4,0.7-13.1-2.1c-0.5-0.3-0.9-0.7-1.3-1.1
			c-0.4-0.4-0.8-0.8-1.2-1.2c-0.7-0.9-1.4-1.8-1.9-2.8c-1-2-1.5-4.3-1.4-6.5c0-0.3,0.2-0.5,0.5-0.5s0.5,0.2,0.5,0.5
			c0.1,2.1,0.7,4.1,1.7,5.9c0.5,0.9,1.1,1.7,1.8,2.5c0.4,0.4,0.7,0.7,1.1,1.1c0.4,0.3,0.8,0.7,1.2,0.9c1.6,1.2,3.6,1.9,5.6,2.1
			c1,0.1,2,0.1,3,0s1.9-0.3,2.9-0.7c0.9-0.3,1.8-0.8,2.6-1.3c0.8-0.6,1.6-1.3,2.2-2l4.4-4.6c3-3.1,6-6.2,9-9.2l4.5-4.6l0.6-0.6
			l0.5-0.5c0.3-0.4,0.6-0.7,0.9-1.1c0.3-0.4,0.5-0.8,0.8-1.2c0.2-0.4,0.4-0.9,0.6-1.3c1.4-3.6,1-7.7-1.2-10.9
			c-1.1-1.6-2.5-2.9-4.1-3.8c-3.4-1.9-7.5-2.1-11-0.4c-0.9,0.4-1.7,0.9-2.4,1.5c-0.4,0.3-0.7,0.6-1.1,1L43,7.9L24.6,26.1
			c-1.8,1.6-3.9,2.8-6.2,3.4c-4.7,1.2-9.6,0.1-13.3-3.1c-1.8-1.6-3.2-3.5-4.1-5.7s-1.2-4.5-1-6.9c0.2-2.3,1-4.6,2.2-6.6
			c2.5-4,6.8-6.5,11.5-6.7c2.3-0.1,4.6,0.3,6.7,1.3c0.5,0.2,1,0.5,1.5,0.8s1,0.6,1.4,1c0.5,0.3,0.9,0.8,1.3,1.1s0.8,0.8,1.1,1.2
			l4.5,4.6c0.7,0.7,1.5,1,2.5,1.1c0.9,0,1.9-0.3,2.5-1c0.2-0.2,0.5-0.2,0.7,0C36.3,10.9,36.3,11.2,36.1,11.4L36.1,11.4L36.1,11.4z"
			/>
		<circle class="st0" cx="27.2" cy="2.9" r="2.2"/>
		<circle class="st0" cx="33.8" cy="8.8" r="1.3"/>
		<path class="st0" d="M88.4,44.5c-1.6,0-3.1-0.2-4.7-0.5c-1.4-0.3-2.9-0.7-4.2-1.3c-1.1-0.5-2.2-1.3-3-2.2
			c-0.7-0.8-1.1-1.8-1.1-2.9v-6.7H77c0.6,4,1.8,6.8,3.7,8.5c2.1,1.8,4.8,2.7,7.6,2.5c1.3,0,2.6-0.2,3.8-0.6c1-0.4,1.9-1,2.5-1.9
			s0.9-2,0.9-3.1c0-1.5-0.5-3-1.6-4.1c-1.3-1.3-2.8-2.4-4.3-3.3l-7.1-4.2c-2.1-1.1-4-2.7-5.5-4.7c-1.1-1.7-1.6-3.6-1.6-5.6
			c-0.1-2.8,1.2-5.5,3.5-7.2c2.3-1.8,5.4-2.6,9.4-2.6c1.6,0,3.1,0.2,4.6,0.5c1.4,0.3,2.9,0.7,4.2,1.3c1.1,0.5,2.2,1.2,3,2.2
			c0.7,0.8,1.1,1.8,1.1,2.9v6.7h-1.6c-0.7-4-1.9-6.8-3.7-8.5C94.1,8,91.6,7.1,89,7.2c-1.2,0-2.4,0.2-3.6,0.7
			c-0.9,0.4-1.7,1.1-2.3,1.9c-0.5,0.9-0.8,1.9-0.8,2.9c-0.1,1.5,0.5,2.9,1.6,3.9c1.3,1.2,2.8,2.2,4.3,3.1l7,4.2
			c2.2,1.2,4.1,2.7,5.7,4.5c1.2,1.5,1.9,3.4,1.8,5.4c0.1,3.1-1.3,6-3.7,7.8C96.6,43.5,93.1,44.5,88.4,44.5z"/>
		<path class="st0" d="M112.3,44.4c-1.1,0.1-2.2-0.2-3.1-0.7c-0.8-0.6-1.4-1.4-1.6-2.4c-0.4-1.6-0.5-3.2-0.5-4.8V4.3h7.5v32.2
			c-0.1,1.5,0.2,3,0.7,4.4c0.5,1.1,1.6,1.7,3.3,1.7h0.6v1.8H112.3z"/>
		<path class="st0" d="M123.6,44.3V12.2c0.1-1.5-0.2-3-0.7-4.4c-0.5-1.1-1.6-1.7-3.3-1.7H119V4.3h24c1-0.1,2.1,0.2,3,0.7
			c0.7,0.4,1.2,1.1,1.4,1.8c0.3,0.7,0.5,1.5,0.5,2.3v5.1h-1.7c0-2.6-0.6-4.5-1.9-5.6c-1.5-1.2-3.4-1.8-5.3-1.7h-8v15.4h12.6V25H131
			v19.1h-7.4V44.3z"/>
	</g>
</g>
</svg>
