<?xml version="1.0" encoding="utf-8"?>
<!-- Generator: Adobe Illustrator 25.2.3, SVG Export Plug-In . SVG Version: 6.00 Build 0)  -->
<svg version="1.1" id="Capa_1" xmlns="http://www.w3.org/2000/svg" xmlns:xlink="http://www.w3.org/1999/xlink" x="0px" y="0px"
	 viewBox="0 0 144 143.8" style="enable-background:new 0 0 144 143.8;" xml:space="preserve">
<style type="text/css">
	.st0{fill:none;stroke:#E86F51;stroke-width:4;stroke-miterlimit:10;}
	.st1{fill:#E86F51;}
</style>
<g>
	<g id="Capa_2_1_">
		<g id="Capa_1-2">
			
				<image style="overflow:visible;opacity:0.2;enable-background:new    ;" width="600" height="599" xlink:href="99FD553B.png"  transform="matrix(0.24 0 0 0.24 0 0)">
			</image>
			<path class="st0" d="M6.2,69.9C6.2,34.7,34.7,6.1,70,6.1s63.8,28.6,63.8,63.8c0,35.2-28.6,63.8-63.8,63.8
				C34.8,133.7,6.2,105.2,6.2,69.9C6.2,69.9,6.2,69.9,6.2,69.9z"/>
			<path class="st1" d="M70,79.7l-8.5-7.4L37.3,93c0.9,0.8,2.1,1.3,3.4,1.3h58.5c1.2,0,2.4-0.5,3.4-1.3L78.4,72.3L70,79.7z"/>
			<path class="st1" d="M102.6,46.8c-0.9-0.9-2.1-1.3-3.4-1.3H40.7c-1.3,0-2.5,0.5-3.4,1.3l32.7,28L102.6,46.8z"/>
			<polygon class="st1" points="35.8,49.8 35.8,90.4 59.4,70.3 			"/>
			<polygon class="st1" points="80.6,70.3 104.2,90.4 104.2,49.8 			"/>
		</g>
	</g>
</g>
</svg>
