<?xml version="1.0" encoding="utf-8"?>
<!-- Generator: Adobe Illustrator 25.2.3, SVG Export Plug-In . SVG Version: 6.00 Build 0)  -->
<svg version="1.1" id="Capa_1" xmlns="http://www.w3.org/2000/svg" xmlns:xlink="http://www.w3.org/1999/xlink" x="0px" y="0px"
	 viewBox="0 0 143.8 143.8" style="enable-background:new 0 0 143.8 143.8;" xml:space="preserve">
<style type="text/css">
	.st0{fill:none;stroke:#E86F51;stroke-width:4;stroke-miterlimit:10;}
	.st1{fill:#E86F51;}
</style>
<g>
	<g id="Capa_2_1_">
		<g id="Capa_2-2">
			
				<image style="overflow:visible;opacity:0.2;enable-background:new    ;" width="599" height="599" xlink:href="E006F699.png"  transform="matrix(0.24 0 0 0.24 0 0)">
			</image>
			<circle class="st0" cx="69.8" cy="69.9" r="63.8"/>
			<path class="st1" d="M84.3,37.9H56.2c-2.3-0.1-4.2,1.6-4.3,3.9c0,0,0,0.1,0,0.1v56c0.1,2.3,2,4.1,4.3,4c0,0,0.1,0,0.1,0h28.2
				c2.3,0.1,4.4-1.7,4.5-4v-56C88.7,39.6,86.7,37.8,84.3,37.9z M70.3,97.2c-1.4,0-2.5-1.1-2.5-2.5c0-1.4,1.1-2.5,2.5-2.5
				c1.4,0,2.5,1.1,2.5,2.5c0,0,0,0,0,0C72.8,96.1,71.7,97.2,70.3,97.2z M84.8,89.9h-29v-47h29V89.9z"/>
		</g>
	</g>
</g>
</svg>
