<?xml version="1.0" encoding="utf-8"?>
<!-- Generator: Adobe Illustrator 25.2.3, SVG Export Plug-In . SVG Version: 6.00 Build 0)  -->
<svg version="1.1" id="Capa_1" xmlns="http://www.w3.org/2000/svg" xmlns:xlink="http://www.w3.org/1999/xlink" x="0px" y="0px"
	 viewBox="0 0 67.6 67.6" style="enable-background:new 0 0 67.6 67.6;" xml:space="preserve">
<style type="text/css">
	.st0{opacity:1.000000e-02;fill:#FFFFFF;enable-background:new    ;}
	.st1{fill:#2A9D8F;}
	.st2{fill:#F5A261;}
	.st3{fill:#E86F51;}
	.st4{fill:#F9FAFD;}
	.st5{fill:#E9E8E8;}
	.st6{fill:#DDD8C1;}
</style>
<g>
	<rect class="st0" width="67.6" height="67.6"/>
	<g id="Capa_2_1_">
		<g id="Capa_2-2">
			<path class="st1" d="M17,0c-2.8,0-5.2,2-5.2,4.4v58.9c0,2.4,2.3,4.4,5.2,4.4h16.8V0H17z"/>
			<path class="st1" d="M50.5,0H33.8v67.6h16.7c2.8,0,5.2-2,5.2-4.4V4.4C55.7,2,53.4,0,50.5,0z"/>
			<path class="st2" d="M16.9,7c-1-0.1-1.9,0.6-2,1.6v45c0.2,1,1.1,1.7,2,1.6h16.9V7H16.9z"/>
			<path class="st3" d="M50.7,7H33.8v48.2h16.9c1,0.1,1.9-0.6,2.1-1.6v-45C52.6,7.6,51.7,6.9,50.7,7z"/>
			<rect x="28.4" y="2.7" class="st4" width="5.4" height="1"/>
			<rect x="33.8" y="2.7" class="st5" width="5.4" height="1"/>
			<path class="st4" d="M31.7,58.2c-0.6,0-1.1,0.5-1.1,1.1v4.1c0,0.6,0.5,1.1,1.1,1.1l0,0h2.1v-6.4h-2.1
				C31.7,58.1,31.7,58.2,31.7,58.2z"/>
			<path class="st5" d="M35.9,58.2h-2.1v6.4h2.1c0.6,0,1.1-0.5,1.1-1.1v-4.1C37,58.7,36.5,58.2,35.9,58.2z"/>
			<path class="st6" d="M33.8,44v5.9c1.6,0,2.9-1.3,2.9-2.9C36.7,45.3,35.4,44,33.8,44L33.8,44z"/>
			<path class="st6" d="M33.7,43.9c-1.6,0-3,1.3-3,2.9c0,0,0,0,0,0.1c0,1.6,1.3,3,2.9,3h0.1V43.9L33.7,43.9z"/>
			<path class="st6" d="M28,22.9c0-3.2,2.6-5.8,5.8-5.8l0,0v-4.7c-5.6,0-10.2,4.6-10.2,10.3c0,10.2,9.9,18.9,10.1,19.1l0.1-0.1v-13
				C30.6,28.7,28,26.1,28,22.9z"/>
			<path class="st6" d="M44,22.8c0.1-5.7-4.5-10.3-10.1-10.4l0,0h-0.1v4.7l0,0c3.2,0,5.8,2.6,5.8,5.8s-2.6,5.8-5.8,5.8l0,0v13
				C34.6,40.9,44,32.6,44,22.8z"/>
		</g>
	</g>
</g>
</svg>
