<?xml version="1.0" encoding="utf-8"?>
<!-- Generator: Adobe Illustrator 25.2.3, SVG Export Plug-In . SVG Version: 6.00 Build 0)  -->
<svg version="1.1" id="Capa_1" xmlns="http://www.w3.org/2000/svg" xmlns:xlink="http://www.w3.org/1999/xlink" x="0px" y="0px"
	 viewBox="0 0 143.8 144" style="enable-background:new 0 0 143.8 144;" xml:space="preserve">
<style type="text/css">
	.st0{fill:none;stroke:#E86F51;stroke-width:4;stroke-miterlimit:10;}
	.st1{fill:#E86F51;}
</style>
<g>
	<g id="Capa_2_1_">
		<g id="Capa_2-2">
			
				<image style="overflow:visible;opacity:0.2;enable-background:new    ;" width="599" height="600" xlink:href="DDE791E5.png"  transform="matrix(0.24 0 0 0.24 0 0)">
			</image>
			<circle class="st0" cx="69.9" cy="70" r="63.8"/>
			<path class="st0" d="M40.9,77V59c0-16,13-29,29-29l0,0l0,0c16,0,29,13,29,29v18c0,16-13,29-29,29"/>
			<path class="st1" d="M46.8,59.1c-0.4,0-0.8-0.1-1.2-0.1c-9.1,0-16.5,7.4-16.5,16.5v3c0,9.1,7.4,16.5,16.5,16.5
				c0.4,0,0.8,0,1.2-0.1V59.1z"/>
			<path class="st1" d="M93.1,59.1c0.4,0,0.8-0.1,1.2-0.1c9.1,0,16.5,7.4,16.5,16.5v3c0,9.1-7.4,16.5-16.5,16.5
				c-0.4,0-0.8,0-1.2-0.1L93.1,59.1z"/>
			<path class="st1" d="M79.9,105.5c0,2.5-2,4.5-4.5,4.5c0,0,0,0,0,0h-11c-2.5,0-4.5-2-4.5-4.5l0,0c0-2.5,2-4.5,4.5-4.5h11
				C77.9,101,79.9,103.1,79.9,105.5z"/>
		</g>
	</g>
</g>
</svg>
