<?xml version="1.0" encoding="utf-8"?>
<!-- Generator: Adobe Illustrator 25.2.3, SVG Export Plug-In . SVG Version: 6.00 Build 0)  -->
<svg version="1.1" id="Capa_1" xmlns="http://www.w3.org/2000/svg" xmlns:xlink="http://www.w3.org/1999/xlink" x="0px" y="0px"
	 viewBox="0 0 67.6 67.6" style="enable-background:new 0 0 67.6 67.6;" xml:space="preserve">
<style type="text/css">
	.st0{opacity:1.000000e-02;fill:#FFFFFF;}
	.st1{fill:#F5A261;}
	.st2{fill:#E94542;}
	.st3{fill:#E86F51;}
	.st4{fill:#2A9D8F;}
</style>
<rect y="0" class="st0" width="67.6" height="67.6"/>
<g id="Capa_2_1_">
	<g id="Capa_2-2">
		<path class="st1" d="M51.8,13.8c-5.1,0-9.6,2.7-13.2,6.5v43.2c0.4,0,0.9-0.1,1.3-0.3c1.1-0.7,27.7-16.2,27.7-34.3
			C67.6,18.9,59.7,13.8,51.8,13.8z"/>
		<polygon class="st2" points="38.6,20.3 38.6,20.3 38.6,20.3 		"/>
		<path class="st3" d="M30,32.7c0.5,0.5,1.2,0.8,1.9,0.8l0,0c2.9-0.1,5.3,2.2,5.3,5c0.1,2.9-2.2,5.3-5,5.3c-1.4,0-2.8-0.5-3.8-1.5
			c-1-1-1.6-2.4-1.5-3.8l0,0c0-0.7-0.3-1.4-0.8-1.9c-1.1-1.1-2.8-1.1-3.9,0c0,0,0,0,0,0l-7,7c7.9,11,21.4,18.9,22.2,19.4
			c0.4,0.2,0.8,0.3,1.3,0.3V20.3l-8.6,8.6C29,29.9,29,31.6,30,32.7C30,32.7,30,32.7,30,32.7z"/>
		<path class="st4" d="M15.8,4.1C7.9,4.1,0,9.3,0,19.2c0,5.3,2.3,10.3,5.5,14.9l7-7c1.1-1.1,2.8-1.1,3.9,0c0,0,0,0,0,0
			c0.5,0.5,0.8,1.2,0.8,1.9l0,0c-0.1,2.9,2.2,5.2,5,5.3c2.9,0.1,5.2-2.2,5.3-5s-2.2-5.2-5-5.3c-0.1,0-0.2,0-0.3,0l0,0
			c-1.5,0-2.7-1.3-2.7-2.8c0-0.7,0.3-1.4,0.8-1.9l8.6-8.6l0,0C26,6.3,20.9,4.1,15.8,4.1z"/>
	</g>
</g>
</svg>
