<?xml version="1.0" encoding="utf-8"?>
<!-- Generator: Adobe Illustrator 25.2.3, SVG Export Plug-In . SVG Version: 6.00 Build 0)  -->
<svg version="1.1" id="Capa_1" xmlns="http://www.w3.org/2000/svg" xmlns:xlink="http://www.w3.org/1999/xlink" x="0px" y="0px"
	 viewBox="0 0 67.6 67.6" style="enable-background:new 0 0 67.6 67.6;" xml:space="preserve">
<style type="text/css">
	.st0{fill:#E86F51;}
	.st1{fill:#2A9D8F;}
	.st2{fill:#F5A261;}
	.st3{opacity:1.000000e-02;fill:#FFFFFF;}
</style>
<g id="Capa_2_1_">
	<g id="Capa_2-2">
		<path class="st0" d="M0,21.8c0.4-0.5,0.7-1.1,1.2-1.4c1.2-0.8,2.6-0.4,3,1C4.6,22.5,4.8,23.7,5,25c0.3,2.7,0.5,5.5,0.8,8.2
			c0.2,1.6,0.9,3,1.7,4.3c1.9,3.1,3.9,6.1,5.8,9.2c0.2,0.4,0.5,0.7,1,0.4c0.5-0.3,0.3-0.7,0.1-1.1c-1.9-3.1-3.8-6.3-5.7-9.4
			c-0.9-1.4-0.4-3.1,1.1-3.7c1.1-0.5,2.3-0.2,3,0.7c2,2.6,3.9,5.2,6,7.7c1.1,1.3,2.5,2.4,3.7,3.5c2.7,2.4,4.5,5.2,5.1,8.8
			c0.2,1.1,0.1,2.3,0,3.5c-0.1,2.2-0.2,4.4-0.4,6.5c0,0.7-0.4,1.1-1.1,1c-3.5,0-6.9,0-10.4-0.1c-0.6,0-1-0.4-1-1.1
			c-0.1-1.5-0.1-3-0.1-4.6c0-0.5-0.2-1.1-0.6-1.5c-3.5-4.1-6.9-8.3-10.3-12.4c-1.3-1.6-2-3.4-2.2-5.4c-0.3-3.3-0.7-6.5-1-9.8
			c-0.2-1.9-0.4-3.8-0.6-5.7c0-0.2-0.1-0.4-0.1-0.6V21.8z"/>
		<path class="st0" d="M46.4,64.6c-1.6,0-3.3,0-4.9,0c-0.9,0-1.2-0.3-1.2-1.1c-0.2-2.6-0.4-5.2-0.5-7.8c-0.1-3,1-5.7,2.7-8.1
			c1.1-1.5,2.4-2.8,4-3.9c1.5-1.1,2.6-2.6,3.7-4.1c1.5-2,3.1-3.9,4.6-5.9c0.9-1.2,2.3-1.4,3.4-0.6c1.2,0.8,1.5,2.2,0.7,3.5
			c-1.2,1.9-2.4,3.9-3.5,5.8c-0.7,1.2-1.5,2.4-2.2,3.6c-0.3,0.4-0.4,0.8,0.1,1.1c0.5,0.3,0.8,0,1-0.4c2.3-3.3,4.6-6.7,6.4-10.3
			c0.8-1.6,1.1-3.2,1.3-4.9c0.3-2.9,0.7-5.8,1-8.6c0.1-0.3,0.1-0.7,0.3-1c0.4-1.2,1.3-1.9,2.2-1.8c1.2,0.2,2.1,1.2,2.1,2.4
			c0,1.2-0.2,2.5-0.3,3.7c-0.3,2.8-0.6,5.6-0.9,8.4c-0.2,2.1-0.4,4.3-0.8,6.4c-0.2,1.6-1.1,3.1-2.1,4.3c-3.4,4.1-6.8,8.2-10.2,12.3
			c-0.3,0.3-0.4,0.7-0.4,1.2c-0.1,1.5-0.1,3-0.2,4.6c0,1-0.3,1.3-1.3,1.3C49.7,64.5,48.1,64.5,46.4,64.6L46.4,64.6z"/>
		<path class="st1" d="M35.6,13.7l3.4,1.4c0.3-0.3,0.6-0.6,0.9-1c0.4-0.4,0.8-0.4,1.3,0c0.4,0.4,0.8,0.8,1.2,1.3
			c0.4,0.4,0.4,0.8,0,1.2c-0.4,0.4-0.7,0.7-1,1c0.5,1.2,0.9,2.2,1.4,3.3c0.4,0,0.9,0,1.4,0c0.6,0,0.9,0.3,0.9,0.8c0,0.6,0,1.2,0,1.8
			c0,0.6-0.3,0.9-0.9,0.9c-0.5,0-0.9,0-1.3,0c-0.5,1.1-0.9,2.2-1.4,3.4c0.3,0.2,0.6,0.5,1,0.9c0.5,0.5,0.5,0.8,0,1.3
			c-0.4,0.4-0.8,0.8-1.2,1.2c-0.4,0.4-0.9,0.4-1.2,0c-0.7-1-1.4-1.1-2.4-0.4c-0.5,0.4-1.2,0.5-1.9,0.7c0,0.5,0,1,0,1.5
			c0,0.6-0.3,0.8-0.8,0.9c-0.6,0-1.2,0-1.8,0c-0.6,0-0.9-0.4-0.8-1c0.2-1.1-0.3-1.7-1.4-1.9c-0.5-0.1-1-0.4-1.4-0.7
			c-0.3-0.2-0.6-0.2-0.8,0.1c0,0,0,0,0,0c-1.3,1.3-1.3,1.3-2.6,0c-0.2-0.2-0.4-0.4-0.5-0.6c-0.4-0.4-0.4-0.8,0-1.2
			c0.4-0.4,0.7-0.7,1-1c-0.5-1.2-0.9-2.2-1.4-3.3h-1.3c-0.6,0-0.9-0.3-0.9-0.9c0-0.6,0-1.1,0-1.7c0-0.6,0.3-0.8,0.9-0.8
			c0.5,0,1,0,1.4,0c0.5-1.1,0.9-2.2,1.4-3.4c-0.3-0.2-0.6-0.6-1-0.9c-0.4-0.4-0.4-0.8,0-1.3s0.8-0.8,1.2-1.2s0.8-0.4,1.3,0
			c0.3,0.3,0.7,0.7,0.9,1l3.3-1.4c0-0.4,0-0.8,0-1.3c0-0.7,0.2-0.9,1-1c0.5,0,1.1,0,1.6,0s0.9,0.3,0.9,0.8
			C35.6,12.8,35.6,13.3,35.6,13.7z M33.8,26.6c2.2,0,4-1.8,4-4c0-2.2-1.8-4-4-4c-2.2,0-4,1.7-4,3.9C29.8,24.7,31.5,26.5,33.8,26.6
			C33.7,26.6,33.7,26.6,33.8,26.6L33.8,26.6z"/>
		<path class="st2" d="M33.8,37.7c6,0.1,11.8-3.8,14-9.3c2.4-5.9,1-13.4-5.1-18l1.5-2.1c5,3.3,8.4,10.4,7.1,17.6
			c-1.3,7.4-7.8,14.4-17.5,14.6v1.6l-0.2,0.2L29,39.1l4.6-3.1l0.2,0.1V37.7z"/>
		<path class="st2" d="M24.9,34.8L23.4,37c-4.7-3-8.1-9.6-7.3-16.5C17,12.8,23.7,4.9,33.8,4.8V3.1L34,3l4.6,3.1
			c-1.6,1.1-3.1,2.1-4.7,3.2V7.6c-4.1-0.4-10.3,2.1-13.4,7.8c-1.8,3.2-2.3,7-1.4,10.5C19.9,29.6,21.9,32.6,24.9,34.8z"/>
		<path class="st0" d="M6.5,22c0.9,0.3,1.3,1,1.5,1.8c0.4,2,0.8,4.1,1.2,6.1c0.1,0.4,0,0.7-0.5,0.8c-0.4,0.2-0.7,0.4-1,0.6
			C7.3,28.2,6.9,25.1,6.5,22z"/>
		<path class="st0" d="M61.1,22c-0.4,3.2-0.8,6.3-1.2,9.4c-0.4-0.2-0.8-0.4-1.3-0.7c-0.2-0.1-0.2-0.3-0.2-0.5
			c0.4-2.2,0.8-4.4,1.3-6.6C59.8,22.8,60.4,22.2,61.1,22z"/>
		<path class="st0" d="M12.6,30.5c-0.5-0.1-0.9-0.1-1.3-0.2C11.2,30.3,11,30.1,11,30c-0.4-1.8-0.8-3.6-1.2-5.4c0-0.1,0-0.2,0-0.2
			c0.7,0.2,1.2,0.7,1.4,1.4C11.7,27.4,12.1,28.9,12.6,30.5z"/>
		<path class="st0" d="M57.8,24.4c-0.4,1.6-0.7,3.2-1.1,4.8c0,0.2-0.1,0.3-0.1,0.5c0,0.4-0.2,0.6-0.6,0.6c-0.3,0-0.6,0.1-1.1,0.2
			c0.5-1.8,1-3.4,1.6-5c0.2-0.5,0.7-0.8,1.1-1.3C57.7,24.3,57.8,24.4,57.8,24.4z"/>
	</g>
</g>
<rect y="0" class="st3" width="67.6" height="67.6"/>
</svg>
